<svg width="62" height="62" viewBox="0 0 62 62" fill="none" xmlns="http://www.w3.org/2000/svg">
<path d="M47.9227 49.6C44.628 49.6 41.9623 52.39 41.9623 55.8C41.9623 59.21 44.628 62 47.9227 62C51.2174 62 53.913 59.21 53.913 55.8C53.913 52.39 51.2174 49.6 47.9227 49.6ZM17.971 49.6C14.6763 49.6 12.0106 52.39 12.0106 55.8C12.0106 59.21 14.6763 62 17.971 62C21.2657 62 23.9614 59.21 23.9614 55.8C23.9614 52.39 21.2657 49.6 17.971 49.6ZM17.971 40.3L21.2657 34.1H43.5797C45.8261 34.1 47.8029 32.829 48.8213 30.907L62 6.2H12.6097L9.7942 0H0V6.2H5.99034L16.7729 29.729L7.84734 46.5H53.913V40.3H17.971Z" fill="black"/>
</svg>
