<svg id="Layer_1" data-name="Layer 1" xmlns="http://www.w3.org/2000/svg" viewBox="0 0 353.08 206.43"><defs><style>.cls-1{fill:#b52f2f;}</style></defs><path class="cls-1" d="M189.13,377.44a5.41,5.41,0,0,1-1.15.94c-.36.21-.74.06-1.14-.47,0-5-.47-8.56-.47-10.73,0-.73-.59-1.7-1.82-2.93a8.57,8.57,0,0,1-2.07-2.81,9.49,9.49,0,0,1-.32-2.8,14.75,14.75,0,0,0-1.08-5.67.5.5,0,0,0-.42-.13c-.14,0-.3.18-.47.46-.09.13-.18.27-.26.41q-.9-1.9-2-3.81c-2.18-4.1-3.43-6.38-3-6.85.3-.22.65-.15,1.06.19s.46.31.38.2a4.83,4.83,0,0,1-.31-1.81,3.79,3.79,0,0,0-.49-1.95,2.21,2.21,0,0,0-1.32-.78q-.56-.11-.54-.36c0-.17-.95-.92-3-2.27l-3.08-2,2.39.63a18,18,0,0,0,1.82.31c.28,0,.44,0,.49-.16s-.16-.42-.64-.94c-.29-.31-.95-1-2-2s-2.13-2-3.07-2.83c-3-2.72-4.79-4.24-5.13-4.55a20,20,0,0,1-4-4.59,23.75,23.75,0,0,0-4.35-5.8c-.94-1-1.31-1.37-1.05-1.25l1.07.86a25.91,25.91,0,0,1,5.29,5.37,26.2,26.2,0,0,0,4.7,5.13c.93.82,2.05,1.72,3.34,2.7s2.07,1.74,2.1,2,1.1,1.29,3.07,3.16a43.79,43.79,0,0,0,3.43,3.1,1.29,1.29,0,0,0,1.27.19,1,1,0,0,1,1.13.22,3.62,3.62,0,0,0,.61.56l.68.5.74.58a7.19,7.19,0,0,0,.66.5c1.31,1.17,2,1.41,2.05.76,0-.25-.47-.88-1.53-1.9a25.43,25.43,0,0,1-2-2,2.9,2.9,0,0,1-1-1.87,2.72,2.72,0,0,0-.58-1.64,13.39,13.39,0,0,0-2-2.49,51.74,51.74,0,0,0-5.43-4.08,54.55,54.55,0,0,1-4.8-3.56c-.6-.49-1.41-1.21-2.44-2.14l-.43-.51,1.12.88c1,.79,3.5,2.42,7.24,4.84,2,1.32,4,2.62,5.9,3.92.79.76,1.55,1.52,2.3,2.29a26.7,26.7,0,0,1,3.4,4.29,14.52,14.52,0,0,0,1.93,2.79,3.8,3.8,0,0,0,1.58,1.15c0-.08-.07-.22-.23-.42-.42-.48.17-.17,1.73.93l2.06,1.35c.72-1.52-.54-4.53-4.69-9a26.6,26.6,0,0,1-2.64-3.31c-.32-1.16-2.51-3.64-7.25-7.45-3.6-2.89-6.19-4.92-7.4-6.09a19.1,19.1,0,0,0-2.37-1.86,85.42,85.42,0,0,0-8-4.7l1.11.26a26.83,26.83,0,0,1,5.68,2.76q2.25,1.31,4.42,2.59,2.34,1.8,4.54,3.6c2.93,2.35,4.32,3.57,4.44,3.66.92.74,1.59,1.25,2,1.55a30.65,30.65,0,0,1,2.77,2.14,18.17,18.17,0,0,1,2.57,2.75,31.13,31.13,0,0,0,3,3.32,12.47,12.47,0,0,1,3,3.72c.26,1.12,1.43,2.81,3.31,5.05a26.72,26.72,0,0,0,2.6,2.85,15.28,15.28,0,0,0,3.14,1.85l2.72,1.27-.06.6c-.06.2-.13.4-.19.6l1.57.72a11.63,11.63,0,0,1,3.13,2,4.78,4.78,0,0,1-1.18-.53,10.3,10.3,0,0,0-3.66-1c-.71-.1-1.08-.11-1.1,0-.55.51.64,1.54,3.43,3l2,1c-3.49-.77-5.76-2.07-6.92-3.85a6.49,6.49,0,0,0-1.24-1.33,3.4,3.4,0,0,0-1.15-.8c-.18,0-.21.33-.11,1.06s.09,1.11,0,1.1a10.45,10.45,0,0,1-2.15-1.09l-1.92-1.07c1.15,1.21,1.73,1.86,1.79,2s-.16.15-.85-.13-1.65-.72-2.86-1.35c-1.46-.74-2.1-1-1.9-.68a4.12,4.12,0,0,0,1,.81l1,.69c-.09.34-.18.68-.28,1-.25.85.41,2.21,1.82,4A6.22,6.22,0,0,1,193.6,355a8.12,8.12,0,0,0,.61,2.6c0,.09.89,1.55,2.18,4.34a24.89,24.89,0,0,1,1.76,4.33l0,.14a7.4,7.4,0,0,1-.51-1.05c-2.48-4.13-4.62-7.56-5.88-10.15a3.62,3.62,0,0,1-.39-1c-.07-.29-.14-.35-.21-.17s-.12,1.71-.1,4.41-.09,4.84-.07,6.34c.08,2.31,0,3.53,0,3.63s.14.31.3.32.21-.14.39-.44c.38-.48.59-.62.64-.41s.06.5.12,1.21c0,1,0,1.67.09,2s.26.41.6,0c.21-.19.26-.75.09-1.66s-.33-1.72-.54-2.59c-.07-.3-.14-.61-.22-.91s-.08-.9-.12-1.35l1.78,1.75a6.72,6.72,0,0,0,3.09,2q2.58.87,5.13,1.7l-.58-1.18c-.4-.78-.62-1.23-.64-1.32s.09-.29.42-.27a8.64,8.64,0,0,1,3.38,1.18,11.38,11.38,0,0,0,3,1.26,1.1,1.1,0,0,0,1-.51c.36-.63.58-.71.67-.25a2.48,2.48,0,0,1,.21,1.11,4.71,4.71,0,0,0,1.62,3c1.52,1.51,2.25,2.57,2.27,3.2l-1.48-.84-1.37-.71a11.07,11.07,0,0,0-1.49,5.3,8.91,8.91,0,0,1-1.9,5.52c-.49.48-.74.68-.77.59a4,4,0,0,1,.61-1.15,7.91,7.91,0,0,0,.73-3.11c.26-3.29-.39-4.94-1.41-4.95-.32,0-.71.28-1.19.85a4.78,4.78,0,0,0-.89,2.3,3.58,3.58,0,0,0,.48,1.86c.14.28.27.56.4.84a6.61,6.61,0,0,0-2.77,2.74c-.42.93-1.12,3.82-3.2,8.7-1.83,4.2-3.25,6.32-3.39,6.34l-.12,0a26.05,26.05,0,0,1,1.21-2.91q.53-1.25,1-2.49c.22-.59.48-1.27.78-2.05s.46-1.27.52-1.47a6.93,6.93,0,0,0,.4-2.9,7.25,7.25,0,0,1,.74-3.08,15.56,15.56,0,0,0,1.7-6.3,2.84,2.84,0,0,0,0-.58,2.23,2.23,0,0,1-.05-.44,3.08,3.08,0,0,0-.93-1.83c-.54-.53-1-.71-1.52-.52s-.67.43-.58.73c.18.5.06.74-.34.74-.65,0-.8.44-.49,1.34a4.24,4.24,0,0,1-.47,2.53,34.06,34.06,0,0,0-2.56,7.38c-.14.6-.32,1.7-.64,3.28s-.48,2.23-.73,2.25-.19-.13-.23-.71a11.25,11.25,0,0,1,.57-3.57c.08-.3.29-1,.57-2.19s.47-2.14.59-2.94a48.18,48.18,0,0,0,.5-7.38h-.6c-.41,0-.72.35-1,1.06a2.87,2.87,0,0,1-.63,1.22,6.32,6.32,0,0,0-.42,2.75,8.62,8.62,0,0,1-1,3.84c-.25.51-.51,1-.78,1.55a2.11,2.11,0,0,1,.83,1.61c-.1.41-.25,1-.48,1.83a32.36,32.36,0,0,1-2.33,4.8c-.5.78-1,1.57-1.57,2.36l1.13-.12c.83-.09,1.14.12.91.62a12.6,12.6,0,0,1-3.75,4.47c-.56.45-1.13.91-1.71,1.36,1.87.59,2.6,1.22,2.17,1.92-.13.21-.49.35-1.1.44-1,.14-1.48.55-1.59,1.2,0,.37.51.42,1.54.17l1.63-.52L183,410.43l-4.61,2.67c-.07.1.13.29.63.55s.56.23.53.37a4.64,4.64,0,0,1-1,1.17c-.42.42-1,1.17-1.89,2.23a10.39,10.39,0,0,1-1.86,1.95c-.64.55-.91,1.06-.81,1.54s.14.83-.14.89l-.57.24c-.48.27-.91.52-1.29.76a34.38,34.38,0,0,0-3.62,2.41,40.16,40.16,0,0,0-3.36,2.7,33.76,33.76,0,0,0-2.63,2.91c-.55.66-1.12,1.32-1.7,2-1.25.82-2.52,1.63-3.81,2.45-2.23,1.42-4.55,3.06-7,4.92s-5.7,4.45-10.56,8c-4.07,3-6.86,4.84-8,5.56l-.25.15,1.92-1.39c8.32-6.28,13.7-11.06,17.36-14,2.3-1.85,4.09-3.25,5.49-4.19a37.89,37.89,0,0,0,3.67-2.68,11.3,11.3,0,0,0,1.68-2,25.55,25.55,0,0,1,1.61-2,7.29,7.29,0,0,1,1-.84c.36-.24.82-.56,1.39-1l1.59-1.14c.8-.67,1.3-1.1,1.5-1.31,1.29-1.35,1.34-2.32.24-2.95l1.12-.23a6.06,6.06,0,0,0,3.44-2q.53-.63.09-.93c-.29-.21.05-.84,1-1.91s1.34-1.59,1.08-1.54c-.1,0-.8.39-2.15,1.14a6.93,6.93,0,0,1-2.31,1c-.48-.17.53-1.27,2.83-3.25a5.62,5.62,0,0,0,1.83-2.27,15,15,0,0,1,1.1-2c2.16-3.39,3.8-5.45,5.43-6.14l1-.28-1-1.65a6.26,6.26,0,0,0-.32-.71,3.51,3.51,0,0,0-.34-.56.86.86,0,0,1-.16-.44,1.41,1.41,0,0,1,0-.61,6.46,6.46,0,0,1,.2-.63,24,24,0,0,1,1.58-2.92,24.3,24.3,0,0,0,2.66-7.06c.38-1.54.7-3.07.94-4.61.45-.85.88-1.7,1.28-2.55C188.55,378.58,189,377.65,189.13,377.44Zm-.82-22.11c1-1.41,1.77-2.05,2.45-2,1,.12.75-.74-1-2.63a4.35,4.35,0,0,1-1.36-2.23l-.15-1a17.61,17.61,0,0,0-2.15-1.2c-.26-.09-.3.11-.14.58a8.53,8.53,0,0,1-.43,2.67c-.17,1.56,0,2.45.67,2.62.34.05.8.58,1.32,1.6Z" transform="translate(-126.55 -251.36)"/><path class="cls-1" d="M224.85,400.79a3,3,0,0,0-.06-1.57,3.55,3.55,0,0,1-.16-1.45c.14-.34.27-.35.38,0,.2.48.47.33.79-.43a6.73,6.73,0,0,0,.33-1.13,12.19,12.19,0,0,1,.49-1.64,9.57,9.57,0,0,1,2.32-3.5l-.9.17c-.52.12-.76.13-.74.05l.27-.52a15.15,15.15,0,0,1,3.38-4.91l.83-.66-.51-.61c-.71-.81-.72-3.16-.73-7a60.7,60.7,0,0,1,.28-8.43c.1-.74.09-1.13,0-1.18s-.31.26-.67.91l-.47.73a42.57,42.57,0,0,0-1.15-8.15c-.19-.54-.39-1.09-.6-1.64a16.12,16.12,0,0,0-3.92-6.29,29,29,0,0,1-4.41-5.13l-.57-.89,1.57.31a3.26,3.26,0,0,0,1.28.16q.12-.11-.33-.63a19.34,19.34,0,0,1-1.49-1.86,9.27,9.27,0,0,0-1.7-1.88c-1.27-.93-3.05-3-5.8-6.22a4.06,4.06,0,0,1-1.27-2.6,3.21,3.21,0,0,0-1.06-2.53c-.8-.83-1.64-1.64-2.5-2.41-2.17-2-3.24-2.92-3-2.89a32.87,32.87,0,0,1,4.12,2.81,43.21,43.21,0,0,1,4.17,3.36,3.05,3.05,0,0,1,.5,1.68,5.4,5.4,0,0,0,1.54,2.95,25,25,0,0,0,2.93,3c1,.81,1.44,1.4,1.47,1.78a9.34,9.34,0,0,0,2.1,2.77c2.9,3,4.74,4.6,6,4.74a2.1,2.1,0,0,0,1.12-.22c.4-.19.36-.62-.12-1.28-.39-.5-.44-.93-.15-1.27.72-.6.64-1.63-.35-3.08a16.51,16.51,0,0,0-3.78-3.8,47.2,47.2,0,0,1-4-3.81A8.77,8.77,0,0,1,219,334.8a3,3,0,0,1,.84.65c.34.41,2.25,1.86,5.36,4.31a26.41,26.41,0,0,1,5.77,5.57,8.87,8.87,0,0,1,1.46,3,1.76,1.76,0,0,0,.36,1.06,2.8,2.8,0,0,0,1.15.46,1.11,1.11,0,0,0,1.11-.28c.33-.31.89-.23,1.65.22.79.83,1.56,1.66,2.31,2.48-.08-.5-.16-1-.25-1.49a11.86,11.86,0,0,0-1.44-3.5c-.74-1.26-1.09-2.15-1-2.65.43-.68.24-1.68-.68-3l-.57-.82c-1-1.26-2.42-3.19-4.52-5.77-1.22-1.49-2-2.43-2.22-2.8a14.52,14.52,0,0,0-3.67-3.29,26.08,26.08,0,0,1-3.38-2.61,18.84,18.84,0,0,1-2.19-2.74,13.93,13.93,0,0,0-3.42-3.48c-.85-.58-1.33-.92-1.42-1s.56.09,2.07.9a17.26,17.26,0,0,1,3.91,2.94c1.38,1.33,2.45,2.46,3.25,3.38l1,1a24,24,0,0,0,3.32,2.81,25.88,25.88,0,0,1,5.11,5c1.73,2.18,3.27,4,4.67,5.55.73.72,1.44,1.45,2.13,2.17,0,.4.07.8.1,1.21a10.36,10.36,0,0,0,1.6,3.33c.88,1.41,1.18,2.33,1,2.75s.2,1.69,1.07,3.79c.48,1.06.92,2.11,1.33,3.17l1.89,1.38c1.24.92,1.89,1.53,2,1.84.37,1.16.47,1.81.35,1.95s0,.43.47.83a9.86,9.86,0,0,1,1,3c1,4.63.44,6.94-.65,6.92-.24,0-.61.34-1.12,1a5.51,5.51,0,0,1-4.24,1.84l-1.8.23,1.46.72a4.72,4.72,0,0,1,1.93,1.43,22.45,22.45,0,0,0,2.23,2.11c1.3,1.16,1.73,1.73,1.33,1.74-.25.08-.35.27-.29.58a5.46,5.46,0,0,0,.36,1.16,2.81,2.81,0,0,1,.26.81,18.15,18.15,0,0,0,.87,3,19.1,19.1,0,0,1,.78,2.72c0,.19-.09.39-.13.58l-.58-.66c-.52-.59-.77-.58-.74,0,0,.31.07.76.16,1.37a7.71,7.71,0,0,1,0,3.53c-.09.3-.23.46-.4.47s-.31.21-.44.6a10.44,10.44,0,0,1-.56,1.05q-.48.82-.81,1.35a1.94,1.94,0,0,0-.34.87c.26.36.12,2.47-.93,6.3-.3,1-.62,2-1,3l-.75.4a11.58,11.58,0,0,0-1.2.71c-.31.22-.39.35-.24.41.43.32.07.71-1.12,1.19-1,.47-2.42,2.24-4.63,5.33-1,1.32-1.93,2.63-3,3.94a105.92,105.92,0,0,1-9.52,10.56c-1.26,1.18-2.55,2.35-3.9,3.53a9.66,9.66,0,0,1,1-1.14c3.93-4.32,6.19-7.16,7.36-8.48l.71-.81c.24-.27.47-.54.7-.82a58.9,58.9,0,0,0,5-6.91c1.89-3.07,2.59-4.63,2.47-4.69a1.39,1.39,0,0,0-.64,0c-.29,0,0-.22.73-.73.57-.36.86-.68.86-1-.23-.19-.07-.39.5-.6a2.08,2.08,0,0,0,1.15-1.87c0-.29-.35-.33-.9-.13s-.68.25-.68.17a3.13,3.13,0,0,1,.53-.82,15.12,15.12,0,0,0,1.22-1.79,12.67,12.67,0,0,1,.85-1.42c.31-.47.49-.75.53-.83a3.6,3.6,0,0,0-.24-2.24c-.12-.29.1-.61.67-1a3.7,3.7,0,0,0,1.32-2.37,28.46,28.46,0,0,0,.72-8.15,4.21,4.21,0,0,0-.25-1.1,4.78,4.78,0,0,0-.53-1c-.19-.27-.34-.36-.43-.28,0,.24,0,1.34.09,3.29a17.74,17.74,0,0,1-.1,3.28,5.56,5.56,0,0,1-.6,1.13,14.8,14.8,0,0,1-1.24,1.65c-.5.57-1,1.13-1.5,1.67s-.93,1-1.28,1.31-.56.47-.61.39c.55-.89,1.18-1.82,1.88-2.8a11.48,11.48,0,0,0,1.78-3,7.07,7.07,0,0,0-.21-3.62c-.21-.62-.44-1.24-.67-1.87,0,.08,0,.16,0,.24a1.59,1.59,0,0,1-.28.73c-.05-.32-.1-.63-.16-1,0-.16.07-.32.1-.48a7.82,7.82,0,0,0,0-2.27,12.07,12.07,0,0,1,0-2.28l.06-.6c.13-.48.25-1,.37-1.45l-1.41-.58a5.53,5.53,0,0,0-2.38-.46l-1.09.13c-.11.49-.23,1-.35,1.48a8.52,8.52,0,0,1-2.5,4.38,4.18,4.18,0,0,0-.55.7.94.94,0,0,0,0,.61,2.88,2.88,0,0,1-.07,1.17,18.71,18.71,0,0,0-.13,3.67,18.14,18.14,0,0,1-.17,3.39c-.07.41-.11.69-.13.85a1.19,1.19,0,0,0,0,.36c0,.08.11.07.32,0,.65-.2,1.2-.37,1.66-.48s.66-.13.63-.05a8,8,0,0,1-2.13,1.35c-1.38.75-2.14,1.17-2.26,1.26a3.89,3.89,0,0,1-1.18.7c-.43,0-.62.29-.6.77a.35.35,0,0,0,.28.44c.3,0,.24.45-.22,1.2a4.93,4.93,0,0,0-.92,2.9,6.37,6.37,0,0,1-.59,2.71l-.46.74c-.09,0-.14-.06-.12-.22a.46.46,0,0,0-.45-.29,6.37,6.37,0,0,0-2.58,1.57,22.31,22.31,0,0,0-2.58,2.36,13.15,13.15,0,0,0-1.65,2.91c-.2.55-.42,1.1-.64,1.64-.77.59-1.56,1.17-2.36,1.76a32,32,0,0,0-4.63,4.05c-1,1.08-3.63,4.65-9.1,10.58a3.11,3.11,0,0,1-.85.75c-.14-.05.25-.58,1.13-1.6a12.74,12.74,0,0,0,1.69-2.51c1.19-2.52,3.69-5.66,7-9.36a23.81,23.81,0,0,1,3.08-3,5.84,5.84,0,0,0,2.6-3.61c.13-.51.25-1,.37-1.52l1.55-1.12a11.84,11.84,0,0,0,2.48-2.38c.7-1.09.55-1.81-.39-2.17l-.57-.29a7.5,7.5,0,0,0,3.17-1.18q.55-.53.42-.75a5.28,5.28,0,0,0-1.48-.91l-1.22-.71A10.66,10.66,0,0,0,224.85,400.79Zm10.34-44.63c-.18-.4-.5-.39-1,0a2.26,2.26,0,0,1-1.77.2c-.73,0-1.08.07-1,.15a16.22,16.22,0,0,1,1.8,3.24,28,28,0,0,0,2.91,5.36c1.2,1.84,1.72,2.78,1.75,2.86h-.13a1.37,1.37,0,0,1-.58-.21c-.23-.13-.49-.28-.76-.46l-1.45-1c.05.58.1,1.15.13,1.72.13,1.47.46,3.69.65,6.66a16.16,16.16,0,0,0,.22,2.72c.16,0,.77-.7,1.75-2.08s1.82-2,2.62-2,1.06-.34,1-.83a23.22,23.22,0,0,0-1.7-6.89,1.18,1.18,0,0,0-.9-.64c-.49,0-.58-.39-.29-1.09.16-.31.18-.51.07-.59-.32-.26-.38-.46-.18-.61a.47.47,0,0,0,.19-.58,12.23,12.23,0,0,0-1.63-2.59,22.31,22.31,0,0,1-1.72-2.49c-.1-.24-.13-.4-.08-.47S235.23,356.25,235.19,356.16Zm9.39,9.76-.06-.23a.28.28,0,0,0,.07-.24,4.09,4.09,0,0,0-.89-1.56c-.48-.57-.9-.87-1.23-.89a.38.38,0,0,0-.33.1c-.18.22-.14.54.14.95s.27.72,0,.94-.46.61-.33,1.17a5,5,0,0,1,0,1.78,10.34,10.34,0,0,0,.13,2.15c.2,1.28.38,1.92.62,1.93a5,5,0,0,0,2.66-1l1.56-.9c.16,0,0-.11-.41-.36l-.27-.13a3,3,0,0,1-1.74-2.29A2.8,2.8,0,0,1,244.58,365.92Z" transform="translate(-126.55 -251.36)"/><path class="cls-1" d="M262.62,348.13a6.77,6.77,0,0,1,1.44.52c1.62.68,2.3.72,2.08.13a3.93,3.93,0,0,0-1.65-1.38,5.79,5.79,0,0,0-2.16-.89c-.57,0-.88-.13-.95-.28s.09-.2.47-.18c.71,0-.07-.71-2.52-2.09l1.88.14c1.83.13,2.87-.25,3.13-1.15s-.43-2-1.88-3a6.46,6.46,0,0,1-1.93-1.72,1.64,1.64,0,0,1,.27-2,2.42,2.42,0,0,0,.18-2.69,8.49,8.49,0,0,0-1.58-1.88c-3.12-3.42-5.64-5.92-7.1-7.48-.44-.45-.63-.7-.56-.76s.35-.08.85,0l.37,0c.6.05,2.35,1.46,4.9,4.2a47.17,47.17,0,0,1,6.06,7.6c.57,1.08.63,1.71.22,1.89-.47.45,0,1.29,1.4,2.5s1.7,2.1,1.4,2.71c-.27.27-.28.65-.06,1.16s.22,1-.07,1.15a.56.56,0,0,0-.26.88,3,3,0,0,0,1.49,1.1,4.3,4.3,0,0,1,2,2l4.59.25c-.1-.46-.21-.92-.32-1.39a2.5,2.5,0,0,0-1.49-1.86c-1.24-.56-2.39-2.28-3.65-5.15-1.05-2.37-1.54-3.54-1.32-3.53s.87.75,1.62,2.19c1.61,2.75,2.77,4.22,3.71,4.41a3,3,0,0,1,2,2.1c.16.46.32.93.47,1.39.23.85.45,1.7.67,2.56a3.29,3.29,0,0,1,.93-.06c1.11.05,2.93.8,5.34,2.22.78.44,1.54.89,2.3,1.34.3-.27.24-1.5-.26-3.68a2.89,2.89,0,0,1-.08-.94c0-.28,0-.47.07-.58s-.05-.23-.23-.37a10.55,10.55,0,0,0-.94-.67l-1.34-.78,1.13-.58c1.39-.85,2-1.91,1.62-3.17a6.76,6.76,0,0,0-1.07-1.71,4.19,4.19,0,0,1-1.08-1.61,2.84,2.84,0,0,1,.35-1.86,3.27,3.27,0,0,0,.24-2.79,39.48,39.48,0,0,0-3-5.42,23.48,23.48,0,0,1-2.34-3.73l-.09-.21.54.44a27.69,27.69,0,0,1,7.55,9.54,7.19,7.19,0,0,0,.33.9c.14.31.26.56.36.74a2.29,2.29,0,0,1,.21.47,1.8,1.8,0,0,1-.24,1.45,2,2,0,0,0-.21,1.55,4.12,4.12,0,0,0,1.39,1.93c1.1.86,1.18,1.56.33,2.09a1.55,1.55,0,0,0-.5,1.65,3,3,0,0,0,1,1.54,2.63,2.63,0,0,0,1.76.74.79.79,0,0,1,.44.11c.2.08.12.15-.24.2a1.75,1.75,0,0,1-.69.09c-1.31,0-1.9.25-1.77.89a.68.68,0,0,0,.59.54c.33.08.53,0,.58-.2s.35-.09.61.33a3.12,3.12,0,0,1,.32,1.79,1.59,1.59,0,0,0,.89,1.38c1.41,1,2.12,1.75,2.18,2.24l-.12.1a1.52,1.52,0,0,1-.57-.32c-.75-.37-1.23-.59-1.41-.66-.46-.08-.67,0-.62.3s.49.92,1.26,1.49a2,2,0,0,1,1.08,1.38c0,.56-1.13.57-3.36,0l.15,1.06a1.43,1.43,0,0,1,0,.78c-.07.1-.2.1-.38,0a4.17,4.17,0,0,1-.49-.32.56.56,0,0,0-.52-.07.59.59,0,0,0-.38.52,5.14,5.14,0,0,0-.07,1.36c.05.35,0,.56,0,.63s-.22,0-.42-.32a6.65,6.65,0,0,1-.37-.85,11.66,11.66,0,0,0-.8-1.91,4.7,4.7,0,0,0-1.69-1.26c-.91-.48-1.44-.66-1.59-.52s0,.12.1.16a4.16,4.16,0,0,1,.49.17c.44.08.71.62.8,1.6s.3,1.59.67,1.81.25.61-.34,1.16-.8,1.67-.24,2.95a3,3,0,0,1,0,2.11,2.45,2.45,0,0,0-.47,1.48,10.58,10.58,0,0,0,.3,1.38c.17.64.35,1.24.54,1.81.1.28.2.57.29.85.16,0,.31-.17.46-.53a2.3,2.3,0,0,1,.69-.62,7.29,7.29,0,0,1,1.12-.68c.35-.17.53-.22.53-.15a4.3,4.3,0,0,1-.43.94,1.57,1.57,0,0,1-.34.42l.13.21.12-.1c.39-.21.67-.27.84-.2s.13.28-.1.63-.41.7-.09.63l.84-.2c.87-.28,1.36-.24,1.45.11-.08.07-.07.12,0,.16a.22.22,0,0,0,.24-.05c.32-.14.44-.1.37.11s-.12.2-.35.41c-.39.7-.42,1.09-.09,1.16.72,0,.69.25-.11.74a.32.32,0,0,0-.24.1,1.27,1.27,0,0,0-.83.84,26,26,0,0,0-.23,2.63c-.05.67-.1,1.34-.16,2l3,0c.07.56.13,1.12.19,1.68a6.13,6.13,0,0,0,0,.63,4.16,4.16,0,0,1,0,.63,8.54,8.54,0,0,1-1.36,4.63,4.77,4.77,0,0,0-.61,1.48c0,.18,0,.35-.05.53l.92-.65,1-.54q-.06.94-.15,1.89a33.18,33.18,0,0,0-.2,3.36c0,.45.07.9.11,1.36h-.77q-2.18,0-2.25.57c0,.15.32.33,1,.56a5.88,5.88,0,0,0,1.95.32c.78,0,1.16,0,1.15.08s-.35.46-1,1a5.49,5.49,0,0,0-2.11,2.4,45.78,45.78,0,0,0-1.4,5.94c-.76,3.78-1.44,5.85-1.82,6.22-.56.64-.74.75-.53.33a2.91,2.91,0,0,1,.31-.64,2.65,2.65,0,0,0,.4-1.05,18.35,18.35,0,0,0,0-5.85,28.54,28.54,0,0,0-.88-5.11c-1.57.89-2.43,1.13-2.52.71,0-.2-.32-.13-.84.24a5.81,5.81,0,0,0-2.49,3.15,2.44,2.44,0,0,0,.87,2.9c.22.2-.19.53-1.26,1a13.12,13.12,0,0,0-3.25,1.78,10.72,10.72,0,0,0-2.05,2.57,23.2,23.2,0,0,0-1.67,3.12c-.15.35-.71,2.51-1.91,6.46a79,79,0,0,1-2.92,8.13c-.15.28-.29.43-.41.44l-.37,0c-.62,0-.87,0-.75-.26a31.21,31.21,0,0,0,2.48-7.43,43.46,43.46,0,0,0,1.26-7.51,4.69,4.69,0,0,1,.26-2,16.72,16.72,0,0,1,2.23-3.06,21.59,21.59,0,0,0,2.92-4.47c.34-.79.66-1.58,1-2.37-2.67-1.92-4.42-2.86-5.4-2.82a1.16,1.16,0,0,0-.56.14,2.28,2.28,0,0,0-1.24,2.62c.05.64-.61,1.7-2.1,3.21a59.24,59.24,0,0,0-6.33,7.83c-.69,1-1.16,1.45-1.36,1.47s-.2-.44.31-1.39,1-1.9,1.48-2.64a29.26,29.26,0,0,0,2.56-4.74,35.14,35.14,0,0,0,1.94-6.81c.55-2.86.84-4.92,1.06-6.16s.45-2.34.64-3.51l.33.21.95.18.33.21c.11-.59-.22-2-1.11-4.33-.41-1.16-.63-1.78-.62-1.85s.58-.78,1.63-1.68,1.45-1.66,1.24-2.09a35.19,35.19,0,0,1-.66-6.79,5.16,5.16,0,0,1,0-1.15c0-.11.21-.12.54-.05l.74.34c.49.22.69.26.61.11a1.87,1.87,0,0,0-.41-.76,18.7,18.7,0,0,1-1.85-2.87,26.5,26.5,0,0,1-.68-3.08,13.37,13.37,0,0,0-1.4-4.41c-.91-1.56-1.29-2.56-1.06-3l1.38-1.46,1.38-1a7.47,7.47,0,0,1-2.48-1.53,9.56,9.56,0,0,1-1.59-2.88c-.21-.48-.43-1-.65-1.44l2.43.15c-2.45-1.22-3.93-2.32-4.33-3.27C262,348.34,262.16,348.1,262.62,348.13Zm12.8,34.4a4.83,4.83,0,0,0-.29-1.41c-.16-.14-.24-.1-.25.11a5.14,5.14,0,0,0,.3,1.3c.1.36.2.72.29,1.07C275.46,383.24,275.44,382.89,275.42,382.53Zm12.3-4.76c-.25-.7-.45-1-.61-1-.48,0-1,.4-1.68,1.21a4,4,0,0,0-1,2.29,1.31,1.31,0,0,0,.45,1c.31.29.1.78-.66,1.49a7.1,7.1,0,0,0-2.13,4.38,36.52,36.52,0,0,1-1.08,5.34c-.68,2.57-1.23,3.85-1.48,3.86s-.12-1.44.25-4.36c.06-.43.12-.94.16-1.55s.07-1.05.11-1.33a30.14,30.14,0,0,1,.74-3.85,30.72,30.72,0,0,0,.44-3.21l0-.74c0-.39,0-.79-.08-1.18l-1.36,1.19a12.67,12.67,0,0,0-2.92,4l-.61,1.3.6,1.17a5.55,5.55,0,0,0,.6,1.16c.4.71.76,1.37,1.08,2a3,3,0,0,1,.44,1.16c0,.07-.1.11-.26.11a15.33,15.33,0,0,1-3.33-1.72c0,.6,0,1.21-.05,1.82,0,1.07-.18,1.65-.44,1.73-.1.07-.22-.17-.36-.74a.61.61,0,0,0-.65-.51q-.26,0-.06.27l1,1.19a24.53,24.53,0,0,1,2.15,2.49l.72.82L279,397a4.78,4.78,0,0,1,1.88-.49,5.52,5.52,0,0,0,2.54-1.45c1.17-1,1.95-1.52,2.37-1.53s.48-.19.45-.54a32.45,32.45,0,0,1,.12-6c.23-3,.56-4.69,1.14-5.18a2.37,2.37,0,0,0,.65-1.8A7.51,7.51,0,0,0,287.72,377.77Zm-8.21-13.46a2,2,0,0,0-.7-.93c-.44-.4-.67-.67-.7-.82a7.28,7.28,0,0,0-.94-1.09c-.63-.66-.85-1.13-.65-1.41s.18-.95-.06-2q-.22-.75-.48-1.5l-1,0-1.15.06.79,1.1a6.3,6.3,0,0,1,1,1.75c.1.43-.16.63-.75.61-.85,0-1.3.06-1.33.27a4.49,4.49,0,0,0,.86,1.75,10,10,0,0,1,1.4,3.9c.08.58,0,.93-.1,1.07-.47.14-.72.29-.73.47a2.56,2.56,0,0,0,.56,1.14,5.81,5.81,0,0,1,.63,2.81c0,1.08.12,1.73.37,1.95l.25.21.33.54.33.54c.43.8.83,1.19,1.24,1.19a5.22,5.22,0,0,0,2-1.06,7.91,7.91,0,0,1,1.24-.74,13.67,13.67,0,0,0,1.59-.94c.39-.28.59-.49.58-.63a12.89,12.89,0,0,0-.54-2,18.2,18.2,0,0,1-.58-1.87c-.07-.71-.89-1.71-2.54-3A2.21,2.21,0,0,1,279.51,364.31ZM279,350.42a4.92,4.92,0,0,0-1.12-.36,7,7,0,0,0-1-.16c-.23,0-.32.06-.28.2a4.32,4.32,0,0,0,1.24.53,4.5,4.5,0,0,1,1.23.53,4,4,0,0,0,1.09.57l.54,0a1,1,0,0,0-.21-.32A3.72,3.72,0,0,0,279,350.42Zm1.28,6.38-2-.39c.21.92.4,1.85.59,2.77.38,1.93.67,3,1,3.22a1.14,1.14,0,0,1,.49.76,10.62,10.62,0,0,0,1.24,1.73c.35.47.7.93,1,1.4a2.47,2.47,0,0,0,0-2.12c-.54-.86-.63-1.5-.28-1.92a1.38,1.38,0,0,0,.25-.84c-.09-.56-.78-1.18-2.09-1.86l.77,0c.59,0,.87-.08.84-.29a2.43,2.43,0,0,0-.56-.92,2.76,2.76,0,0,1-.54-.81C280.89,357.06,280.66,356.81,280.31,356.8Z" transform="translate(-126.55 -251.36)"/><path class="cls-1" d="M324.47,356.64a10.76,10.76,0,0,0,2-1,2.53,2.53,0,0,0-.35-.78,3.39,3.39,0,0,1-.44-1.14c-.05-.31.16-.51.62-.59s.59-.32.69-.95l.18-1.16a1.43,1.43,0,0,1,.44-1c.31-.21-.23-.75-1.67-1.62,2.6-1,4.11-2.31,4.44-3.78a2.57,2.57,0,0,0-.08-1.56,3,3,0,0,1-.15-1.87,3.08,3.08,0,0,1,1.18-1.71,5.79,5.79,0,0,0,1.91-3,24.25,24.25,0,0,0,.6-5.21,12.51,12.51,0,0,0,0-2c-.05-.76-.07-1.33-.07-1.71a3.31,3.31,0,0,1,.05-.68c.09-.27.19-.42.31-.42.37,0,.46.26.27.82a7.59,7.59,0,0,0,.68,2.66,12.83,12.83,0,0,1,.46,6.62,22.11,22.11,0,0,1-.37,2.2,3.67,3.67,0,0,1-1.29,1.83,2.21,2.21,0,0,0-.62,1.17,2.71,2.71,0,0,0,.18,2.07,3,3,0,0,1,.4,1.24c0,.14-.35.43-.93.87a3.29,3.29,0,0,0-1.42,1.83c-.23,1.05.5,1.76,2.16,2.12,0,.07-.22.15-.6.23a2.73,2.73,0,0,0-2.4,1c-.07.35.1.62.52.82.85.25,1,.63.58,1.13-.48.65-.21,1.41.76,2.29a4.53,4.53,0,0,1,1,1.54c.27.63.55,1.25.83,1.87a2.76,2.76,0,0,1,.56,2,7,7,0,0,0,.86,3.53q1.07,2.35,2.05,4.16a7,7,0,0,1,.87,1.8l-1.41-.62a4.83,4.83,0,0,0,.4,1.06,6.71,6.71,0,0,1,.66,3.31c0,1.07-.29,1.6-.77,1.6-.33,0-.25.25.22.75,2.53,2.85,3.91,4.56,3.93,5.06,0,.14-.44.14-1.33,0l-1.46-.23,0,1.82-.12,1.82c.52.86,1,1.73,1.59,2.59a25.16,25.16,0,0,1,1.75,3c0,.07,0,.1-.11.1a1.3,1.3,0,0,1-.67-.34c-1.1-.81-1.62-1.11-1.6-.89a5.63,5.63,0,0,0,.21.64l.06.43a3.62,3.62,0,0,1,.25.86c.06.36.14,1,.27,2s.24,1.66.32,2.09a7.72,7.72,0,0,0,.51,1.83,1.35,1.35,0,0,0,.39.6,2.88,2.88,0,0,0,1-.12c.91-.11,1.43-.09,1.55.06s0,.21-.41.41l-.47.2c-.78.32-1.14.59-1.09.8a10.64,10.64,0,0,0,2.51,2.13,12.81,12.81,0,0,1,2.84,2.8c.68,1,1,1.47.93,1.54-.42.33-1.53-.09-3.23-1.23l-1.39-1a4,4,0,0,0,.29,2.66c.3.65.23,1.1-.24,1.36-1.37.56-1.83,1.63-1.29,3.19a6.18,6.18,0,0,0,1.09,1.84c1.16,1.32,1.54,2.35,1,3.09a3.33,3.33,0,0,0,0,2.91A48.33,48.33,0,0,0,350,426l1,1.2.81,1a6,6,0,0,1,.41.6l-.12.09-1-.89c-.7-.66-1.72-1.62-3-2.87a46.86,46.86,0,0,1-3.26-3.51,23,23,0,0,1-2.41-3.57,10.46,10.46,0,0,1-.8-1.71,2.47,2.47,0,0,1-.05-1.77,2.36,2.36,0,0,0,0-1.57,4.42,4.42,0,0,0-1.31-1.73,5.68,5.68,0,0,1-1.16-1.42,1,1,0,0,1,.35-.93,1.4,1.4,0,0,0,.46-1,1.15,1.15,0,0,0,0-.64c-.25-.85-1.53-1.78-3.76-2.78l1.37,0c.91,0,1.43-.13,1.55-.51s-.22-.76-1-1.15-1.06-.53-1.14-.88-.78-.7-2.12-1.24a10.13,10.13,0,0,1-2-.9c0-.14.24-.38.78-.71a.94.94,0,0,0,.42-1.25.93.93,0,0,0-.2-.43l.11-.1.15.11a.55.55,0,0,0,.7,0,3.38,3.38,0,0,0,.6-1.3c.14-.7.16-1.05.08-1.05l-.36.09c-.41.14-.58.09-.53-.12s.11-.34.17-.52,0-.6-.27-1a5.68,5.68,0,0,1-.88-1.92c-.14-.46-.28-.92-.41-1.38-.13.35-.26.7-.38,1.05a4.9,4.9,0,0,0-.11,2.11,6.27,6.27,0,0,1-.06,2.21c-.15.7-.35,1-.61,1s-.26,0-.27-.11-.25-.06-.44,0-.61.35-1.24.76a17.61,17.61,0,0,1-3.79,1.64,21.57,21.57,0,0,0-3.76,1.54c-.42.21-.29.66.42,1.37s1,1.16.81,1.16a3.77,3.77,0,0,1-.85-.33c-1.44-.79-2.49-.74-3.22.15-.41.48-.6.83-.58,1s.76.94,2.27,2l1.37,1-1.84-.24a3.84,3.84,0,0,0-2.62.48,5,5,0,0,0-1.48,2.68,6.15,6.15,0,0,1-1.26,2.8,12.66,12.66,0,0,0-2.06,3.72,10.89,10.89,0,0,1-2.09,3.68,6.2,6.2,0,0,1-2.45,2.13,1.79,1.79,0,0,0-.5.1c-.23.14-.4.17-.51.1s.24-.62,1-1.66c1.1-1.45,2.13-4,3-7.58a18.76,18.76,0,0,1,2.65-5.91,17.62,17.62,0,0,0,1.37-2.79q0-.21-.15-.21a3.6,3.6,0,0,0-1.21.51,2,2,0,0,1-.88.31,7.41,7.41,0,0,1-1,.09c-.28,0-.42,0-.42-.1s.22-.42.67-.62a3.12,3.12,0,0,0,1.77-2.9,1.72,1.72,0,0,0-.44-1c-.37-.35-.51-.6-.43-.74s.39-.17.92-.09a1.85,1.85,0,0,0,1.8-.72c.39-.82.31-1.38-.22-1.66a.91.91,0,0,1-.42-.63c0-.28.37-.33,1.16-.15s1.16.14,1.14-.14A4.33,4.33,0,0,1,319,394a37.82,37.82,0,0,0,1.66-3.84c.72-1.88,1.16-2.95,1.31-3.23-1.19.69-1.88,1-2.05.82.5-1.87,1-3.75,1.53-5.63,0-.14-.17-.14-.49,0a3,3,0,0,1-.5-1.15,16,16,0,0,1,.77-4.7,11,11,0,0,1,1.69-3.76c.42-.43.55-.67.39-.74a2.45,2.45,0,0,0-.62.21,1.26,1.26,0,0,1-1.09.11c-.16-.13-.23-.24-.23-.31a30.48,30.48,0,0,1,2.46-3.68c1.94-2.46,3-3.77,3-3.91s-.53-.09-1.66.55a3.51,3.51,0,0,1-1.16.54c-.16,0-.24-.1-.22-.31s.35-1,1.1-2.74c.47-1,1-2.11,1.47-3.16q.28-.21.81.24a1.68,1.68,0,0,1,.59.88c.12.42.26.63.43.62s0-.3-.14-.89-.38-1.19-.6-1.82a4,4,0,0,0-.45-1c-.89.16-2.17.36-3.84.59a1.46,1.46,0,0,0-.4.12h-.13l-.12-.1C322.55,357.58,323.18,357.22,324.47,356.64Zm6.78,31.43A7.64,7.64,0,0,0,330,388a10.52,10.52,0,0,1-3.64-1.2c.07.49.15,1,.22,1.47,0,.21,0,.42,0,.63.22,3-.21,5.42-1.47,7.21a2.57,2.57,0,0,0-.21.46s.18.06.52.06a25.69,25.69,0,0,0,3.24-.3,9.57,9.57,0,0,0,2.54-.51,6.33,6.33,0,0,0,.06-1.84c0-1.16,0-2.34,0-3.53s0-1.83,0-1.9C331.35,388.27,331.33,388.11,331.25,388.07Zm-.22-5.33c.24,0,.51-.26.82-.79s.49-.79.57-.79.22-.1.42-.31l.7-.74.54-.53-1.09.21c-.88.14-1.42.1-1.62-.11s-.28-.78-.2-1.69a8.6,8.6,0,0,1,1.28-4.35c.43-.56.3-1.34-.37-2.32s-1.31-1.15-1.68-.3c-.16.71-.32,1.41-.46,2.11q-.45,2.12-.93,4.17c-.33,1.37-.64,2.09-1,2.16s-.32,0-.24-.21a2.73,2.73,0,0,0,0-.32c.08-.21.18-1.43.39-3.68a19.06,19.06,0,0,1,.76-4.32,6.67,6.67,0,0,1,.24-1.16c.05-.07-.12,0-.5.21a1.91,1.91,0,0,1-.81.33q-.48,0-.09-.42a2,2,0,0,0,.67-1,1.1,1.1,0,0,0-.12-.94c-.19-.28-.57-.38-1.15-.3l-1,.22.42,1a16.93,16.93,0,0,1,.5,5.56c-.06,2.45-.28,4.1-.76,4.94-.23.41-.11.73.38.94a8.6,8.6,0,0,1,2.23,2c1.43,1.84,2.16,2.3,2.11,1.39,0-.43-.11-.64-.27-.64s-.25-.07-.25-.21S330.71,382.74,331,382.74Zm-.6-14c0,.14.05.16.18.05s.15-.19.08-.26-.14-.07-.19,0A.44.44,0,0,0,330.43,368.7Z" transform="translate(-126.55 -251.36)"/><path class="cls-1" d="M388,401.35a4,4,0,0,0,.41,2c.22.41.28.61.2.6a15.19,15.19,0,0,1-2.53-3.29c-3.48-5.25-4.78-7.83-5.24-7.86-.17,0-.26.1-.26.34-.05.4-.37.77-1,1.12l-1,.64.33.26c1.54,1.12,2,1.71,1.37,1.74-.34,0-.5.26-.47.84a23.66,23.66,0,0,0,1.3,5c1.14,3.15,1.9,4.83,1.84,5.05a68.09,68.09,0,0,1-6.35-11.52,10.43,10.43,0,0,0-1.91-2c-1.52-1.17-1.52-1.82-.1-2,.78-.11,1.16-.21,1.14-.29a16.61,16.61,0,0,0-1.62-2,18.44,18.44,0,0,1-1.51-1.88,1.41,1.41,0,0,1,.7-2.21c.22-.15.32-.31.29-.47,0-.31-.64-.67-1.77-1.05a10.07,10.07,0,0,0-2.55-.59l-1.33,0c0,.51,0,1-.06,1.51a6.58,6.58,0,0,1-1.17,4.34q-.5.56-.42.84a3.54,3.54,0,0,0,.39.87,5.35,5.35,0,0,1,.51,1.28,6.57,6.57,0,0,0,1.25,2.57,24.84,24.84,0,0,1,3.47,5.66,4.35,4.35,0,0,1,.48,1.94c-.14.43.08.71.65.83l.8.07a.94.94,0,0,1-.49.18,1.72,1.72,0,0,0-.56.18.76.76,0,0,0-.23.31c-.06.15,0,.34.22.58s.25.42,0,.33-.89-.41-2-.95c-1.79-.88-2.72-1.36-2.84-1.44l-.09.1a13.54,13.54,0,0,0,2.1,1.5,10.5,10.5,0,0,1,3.91,3.31,1.31,1.31,0,0,1,.18.57,2.72,2.72,0,0,1-.67.91c-.07.36,0,.59.25.68,1.16.62,1.32.89.47.81-.38,0-.51.11-.4.45s.54,1.44,1.39,3.31a24.23,24.23,0,0,1,1.26,2.89c-.69-.85-1.35-1.69-2-2.54-2.07-3.2-3.63-5.2-5-6-.62-.34-.95-.62-1-.84s.28-.31.93-.25.93,0,.85-.14c-.36-.69-1.48-1.33-3.33-1.92l-1.7-.57c.22-.27.44-.55.67-.82a1.15,1.15,0,0,0-.17-1.55,21.52,21.52,0,0,1-2.08-4c-.46-1.07-.89-2.13-1.3-3.19l.49-.87.66-.75-.95.18-1,.06c0-.41,0-.82,0-1.22a6.3,6.3,0,0,1,1.25-3.66c.52-.66.65-1.07.37-1.24-1-.64-1.91-2.77-2.25-6.41,0-.49-.06-1-.08-1.48a18.4,18.4,0,0,1,1.41-7.86c.26-.58.52-1.15.8-1.73L361.8,372c-.54.58-.94,1-1.2,1.21,1.33-5.31,2.68-8.61,3-9.83,0-.19.09-.38.14-.57.52-2.28.58-3.51,0-3.69s-.77-.74,0-1.45a1.38,1.38,0,0,0,.34-1.13.91.91,0,0,0-.64-.84c-.15-.06-.17-.23-.07-.49a7.48,7.48,0,0,1,.41-.91,3.78,3.78,0,0,0,.37-1.07,4.13,4.13,0,0,1,1.2-2.17l1.14-1.07c-.2-.13-.41-.27-.64-.44L365,349a2.49,2.49,0,0,1-.63-.49l1.33-.54a12.37,12.37,0,0,0,6.3-4.88,4,4,0,0,0,.75-2.32,3.51,3.51,0,0,1,.74-2.19,4.42,4.42,0,0,1,1.55-1.43,16.7,16.7,0,0,0,5.18-4.44,43.09,43.09,0,0,0,3.44-5,25,25,0,0,1,3.08-4.43c.36-.38.6-.58.72-.59s.2.59-.11,1.88a11.25,11.25,0,0,1-1.07,2.92,40.35,40.35,0,0,1-4.8,7.51,16.25,16.25,0,0,1-2.83,2.85,10.52,10.52,0,0,0-2,1.81,3.6,3.6,0,0,0-.41,1.54,2.45,2.45,0,0,0,.13,1.38c.38.39-.37,1.19-2.13,2.38a7.33,7.33,0,0,0-2.56,2.42c-.54,1-.19,1.76,1,2.32.63.46.54.72-.27.79-1.62.15-2.6.56-2.91,1.24-.11.23.08.48.56.73a2.69,2.69,0,0,1,1,2c.3,1.47.18,2.24-.42,2.28-.43,0-.36.4.2,1.11s.8,1.24.7,1.55-.32.44-.55.15a2.28,2.28,0,0,0-.48-.42,3.16,3.16,0,0,0-.51-.31c-.14-.07-.23-.06-.25,0a3.65,3.65,0,0,0,.15,1,9.65,9.65,0,0,1-.54,3,9.27,9.27,0,0,0,.17,5.06c.26,1,.55,2,.86,3-.11.24-1.06-.29-2.8-1.55,0,.23-.51,2.21-.9,5.92s-.29,5.64-.38,5.8l2.2-2.31c1.41-1.55,2.54-2.39,3.26-2.47a4.63,4.63,0,0,0,3.09-1.81c.37-.49,1.2-2.36,3-5.71a45.54,45.54,0,0,1,3.35-5.44c-1.36-.63-2-1.22-1.89-1.78.05-.4-.48-.52-1.6-.37-2,.28-2.86.1-2.65-.53.05-.16.25-.25.58-.27a2.3,2.3,0,0,0,1.18-.54,2.47,2.47,0,0,0,.85-1c.09-.24,0-.62-.38-1.13s-.47-.85-.4-1l.26,0,1.67-.13a8.76,8.76,0,0,0,5.1-1.7l.69-.42q.13.22.39,0c.12-.09.06-.4-.18-.92-.25-.67-.29-1-.11-1a1.73,1.73,0,0,1,.46.07.59.59,0,0,0,.79-.3c.25-.49.56-.64.91-.44s.64.09.86-.32-.12-1.22-1.17-2.18a9.62,9.62,0,0,0,3.14-1.25,13.4,13.4,0,0,0,2.43-3,9.06,9.06,0,0,1,2.05-2.39,43.84,43.84,0,0,0,3.29-3.65c2.94-3.33,5.29-5.2,6.53-5.6l.19.07a1.38,1.38,0,0,1-.38.27,48.06,48.06,0,0,0-5.47,6.13c-2.61,3.31-5.14,6.58-7.58,9.78l1.09-.58a12.51,12.51,0,0,1,1.6-.88q.4-.17.45.18a.53.53,0,0,1-.42.28c-.63.07-1.41.86-2.24,2.35-.37.66-.39,1.09-.09,1.3.52.57.31.91-.64,1a2,2,0,0,0-1.36.72,1.13,1.13,0,0,0-.33,1.22.68.68,0,0,1,.06.53.77.77,0,0,1-.26.44,6.85,6.85,0,0,0-1.21,2.25c-.46,1.16-1.16,2.58-2,4.26a24.93,24.93,0,0,0-2.27,7.69c-.18,1.16-.31,2.31-.4,3.46-.11,1.32-.28,2-.61,2.11s-.82.42-1.47,1.24a7,7,0,0,1-4.8,2.05l-2.16.11,2,1a8.57,8.57,0,0,1,3.12,2.82,35.09,35.09,0,0,0,3.94,4.39,35.83,35.83,0,0,1,3.06,3.21,21.59,21.59,0,0,0,1.72,1.94c1.16,1.22,1.79,1.88,1.81,2l2.18,1.88a20.2,20.2,0,0,1,2.5,2.18c.11.25-.17.35-.85.28-.85-.07-.58.56.89,1.91.43.36.77.64,1,.82a1.64,1.64,0,0,0,.58.31,6.32,6.32,0,0,0,.85,0c.43,0,.79-.08,1.1-.13l1.48,0-1.08.74-1,.85c0,.08.44.55,1.48,1.43s1.73,1.41,2,1.61l-.11.22-.8-.1c1.11,1.21,2.28,2.41,3.49,3.63s2.31,2.41,3.54,3.62l-.48-.3q-.48-.3-1.29-.87c-.53-.38-1.12-.81-1.75-1.29s-1.31-1-2-1.54l-1.64-1.15c-.09,0,0,.16.34.51a4.45,4.45,0,0,1,.63.84,2.26,2.26,0,0,1,.19.55.88.88,0,0,0,.13.36,2.6,2.6,0,0,0,.55.42,9.24,9.24,0,0,0,1.2.62c1.24.56,1.53.94.85,1.15-1,.47-1,1.52-.05,3.15a15.07,15.07,0,0,0,2.72,2.62c1.94,1.54,3.09,2.77,3.34,3.67a8.26,8.26,0,0,0,2.59,3.81,78.76,78.76,0,0,0,8.37,6.77c4,2.9,6.48,4.62,7.12,5.13l.16.13c-.34-.2-1-.57-1.83-1.12s-2.64-1.6-5.45-3.39-4.91-3.27-6.47-4.46-3.3-2.62-5.16-4.32c-.85-.77-1.63-1.53-2.33-2.28a5.84,5.84,0,0,1-1.17-1.68,5.25,5.25,0,0,0-1.07-1.78,14.42,14.42,0,0,0-2.45-2.12c-1.68-1.19-2.4-2.07-2.24-2.64a2.76,2.76,0,0,0-.57-2.1,8.67,8.67,0,0,0-4.19-2.93l-.49-.18.74,0c1.37.17,1.77-.16,1.23-1a5.88,5.88,0,0,0-1.55-1.17A3.51,3.51,0,0,1,393,406a3.53,3.53,0,0,0-1.33-1.9c-.31-.27-.4-.2-.26.21,0,.07,0,.19.08.36s.23.57.36.85A27.41,27.41,0,0,1,388,401.35Z" transform="translate(-126.55 -251.36)"/><path class="cls-1" d="M418.59,379.53a12.64,12.64,0,0,1-.34-3.84q0-.74.09-1.47l-2.24-1.7a9.19,9.19,0,0,0-5.87-1.95c-1.13.05-1.8.21-2,.5-.31.47-.51.43-.59-.12a1.27,1.27,0,0,0,0-.55c0-.65.17-1,.41-1,.65,0,.9-1.15,1-3.35,0-.55,0-.82.1-.83s.1-.09.24,0c.3.07.42-.08.36-.44a4.5,4.5,0,0,0-.1-1.63c0-.54-.05-1.08-.06-1.61l.17-.15c.17,0,.42.23.76.75s.57.77.65.76.41-.53.77-1.56c.21-.47.43-.94.65-1.41l-2.28,1.95c.21-.83.44-1.65.69-2.48.11-.28.33-.92.7-1.94s.62-1.69.72-2q.35-.82.72-1.65a10.34,10.34,0,0,1,1.17-.4,8.72,8.72,0,0,0,1.11-.4c.27-.12.57-.26.9-.44A3.25,3.25,0,0,0,417,352a2.56,2.56,0,0,0,.49-.65,21.21,21.21,0,0,1,3.73-4.27,11.5,11.5,0,0,1,3-2,12.15,12.15,0,0,0,3.08-2q.33-.44,0-.51c-.16-.31.53-1.21,2.18-2.73a1.81,1.81,0,0,0,.76-1.55c-.07-.51-.39-.75-1-.73s-.69-.15-.61-.24a3.46,3.46,0,0,1,1.1-.44c.65-.2.8-.55.46-1-.23-.28-.17-.6.18-1a2.28,2.28,0,0,1,1.44-.27l.44-.08a13.64,13.64,0,0,0,4.14-1.68A20.5,20.5,0,0,0,440.4,330a5.58,5.58,0,0,0,1.56-2,6.19,6.19,0,0,1,1.47-1.87,25.71,25.71,0,0,1,4.91-3.24,55.71,55.71,0,0,0,7.75-5.11c1-.78,1.73-1.35,2.15-1.72,7.26-5.9,12.4-9.28,13.87-10.26a7.16,7.16,0,0,1,2-.86c.5-.13.71-.12.65,0s-2.88,2-7.53,5.43-7.76,5.91-9.8,7.48c-3.19,2.46-5.5,4.21-7.17,5.24l-2.48,1.53c-.46.5-.92,1-1.37,1.51a18.25,18.25,0,0,1-4.42,4.23,10.26,10.26,0,0,0-2.07,1.58,11.51,11.51,0,0,1-2.44,1.79c-2.27,1.32-2.9,2.19-2,2.66.29.11.13.51-.47,1.19s-.78,1.09-.57,1.22a4.09,4.09,0,0,0,2-.19,7.59,7.59,0,0,0,2.25-.74,16.79,16.79,0,0,0,2.14-2.15c1.09-1.12,1.61-1.92,1.52-2.38a2,2,0,0,1,.59-1.55l1.05-1.05a74.81,74.81,0,0,1,11-9.3c.12-.1.14-.11.07,0a3.91,3.91,0,0,1-.55.5l-1,.83c-.36.3-.74.64-1.15,1l-1.3,1.18c-3.86,3.46-5.12,5.31-4.39,5.55s.13.8-1.52,2.12c-.38.32-1.88,1.71-4.2,4.17a41.1,41.1,0,0,1-3.16,3.27,8.23,8.23,0,0,1-2.6,1c-.18,0-1.37.54-3.52,1.51l.92-.29a7.22,7.22,0,0,1,6.18,1.44l-1.15.47-1.28.48.57.86a3.66,3.66,0,0,1,.4,1.86l.15.68c.4-.62.83-.69,1.3-.2l.06.27c.14.55-.77,2.49-2.22,5.82-.29.73-.65,1.57-1.07,2.51-.34.74-.61,1.12-.86,1.15a.72.72,0,0,1-.67-.37c-.16-.18-.31-.12-.44.2a11.53,11.53,0,0,0-.42,3,12.16,12.16,0,0,0,.09,3.14c.3,1.11-.24,2.4-1.6,3.83s-1.87,1.55-1.64.41c0-.21-.08-.41-.35-.6s-.25-.5-.07-1.22c.24-.94.16-1.08-.25-.45a15,15,0,0,0-.9,1.74l-.19.32-.59,1.1-.15-.45a9.2,9.2,0,0,1-.41-.89c-.21-.49-.38-.94-.52-1.33s-.11-.49-.17-.74a.88.88,0,0,0,.21-.54,3.09,3.09,0,0,0,0-.67c0-.5,0-.87,0-1.12s.07-.4.21-.46a.87.87,0,0,1,.59,0,3.52,3.52,0,0,1,1,.51l.76.24c-.1-.19-.2-.38-.29-.58s-.16-.26-.32-.49-.35-.5-.57-.77a3.53,3.53,0,0,1-.47-.7,3.36,3.36,0,0,1,0-2.92,3.07,3.07,0,0,1,1.75-1.78.4.4,0,0,0,.22-.1.43.43,0,0,1,.22-.09l-.54-1.09a4.58,4.58,0,0,1-.7-2.31c-.1-.4-.19-.8-.27-1.21-.3.6-.59,1.19-.87,1.78a32.48,32.48,0,0,0-1.29,3.82c-.34,1.46-.52,2.35-.64,2.65a3.13,3.13,0,0,1-1,1.1c-.69.55-1,.91-.88,1.1.24.46,0,.92-.81,1.37a2.61,2.61,0,0,0-1.28,1.84,10.3,10.3,0,0,1-.34,1q-.21.6-.24.75c-.18.4,0,.83.55,1.29s1,.49,1.3.08.58-.13.79.85a6.45,6.45,0,0,0,.83,2.22c.33.5.66.69,1,.57s.64.13.93.74a7,7,0,0,1,.6,2c.2,1.64,1.47,2.87,3.72,3.71a2.77,2.77,0,0,1,2.37,2.57c0,.42-.14.42-.48,0a1.34,1.34,0,0,0-1.35-.5c-.8.21-1,.83-.48,1.89a4.33,4.33,0,0,1,.53,1.59,17.9,17.9,0,0,1-.44,4.51c-.08.92-.13,1.85-.16,2.76l1.8,1.67a8.82,8.82,0,0,1,2.08,2.64,7.37,7.37,0,0,1,.24,2.15,7,7,0,0,0,.29,2.58,11.41,11.41,0,0,1,.54,1.84c.17.8.39,1.22.64,1.25a.89.89,0,0,0,.77-.33.5.5,0,0,0,.22-.27c.58,1.21,1.21,2.41,1.88,3.62,1.81,3.43,2.92,5.5,2.81,6.21-.13.89-.58.81-1.33-.23-.3-.41-.36-.33-.18.25a12.8,12.8,0,0,0,1.6,2.5c1,1.28,1.57,2.07,1.74,2.36a4.42,4.42,0,0,0,.77,1.19,78.44,78.44,0,0,0,6.58,6.5c.92.85,2,1.81,3.23,2.88s2.24,1.9,3,2.5,1.33,1.1,1.81,1.51a11.81,11.81,0,0,1,2.69,3.32,9.45,9.45,0,0,0,3,3.2c1.58,1.23,3.06,2.32,4.42,3.27,3,2.18,4.6,3.26,4.48,3.23a4.67,4.67,0,0,1-1.37-.75c-.72-.51-2.45-1.61-5-3.28-2.84-1.8-4.71-3.1-5.73-3.91a6.79,6.79,0,0,1-1.67-1.79,20.71,20.71,0,0,0-4-4.28c-1.16-1-2.82-2.36-4.9-4-1.14-.88-1.55-1.29-1.26-1.22.39-.08-1.34-1.65-4.72-4.66-2.52-2.35-4.28-3.76-5.54-4.25a1.28,1.28,0,0,0-1.48.05c-.36.31-.33.71.1,1.21a1.45,1.45,0,0,1,.47,1.33c-.42.66.11,1.82,1.73,3.49a36.3,36.3,0,0,0,5.69,4.69c2.28,1.64,4.41,3.27,6.37,4.89l2.31,1.94c-.22-.13-.63-.4-1.21-.82-1.6-1.09-4.42-3-8.17-5.59a55.48,55.48,0,0,1-8.13-6.56,23.85,23.85,0,0,1-2.75-3.32,2.65,2.65,0,0,0-1.43-1.12,17.09,17.09,0,0,1-3-1.9,12.78,12.78,0,0,0-1.51-1c-.25-.13-.39-.15-.41-.07a1.58,1.58,0,0,1-.13.35c-.08.15-.26.2-.53.16-.64,0,.09,1.38,2.6,4.23,1.52,1.71,2.29,2.71,2.16,3-.07.84.76,2.14,2.61,3.93,1.07,1,2.72,2.47,5,4.33,1.92,1.55,3.11,2.47,3.44,2.75.56.48,1.19,1.06,1.91,1.77,1.89,1.79,3,2.73,3.08,2.82a45.83,45.83,0,0,0,4.59,3c3,1.78,5.08,3.07,6.17,3.83s2.09,1.52,3.42,2.57c1.91,1.42,2.53,2,1.79,1.86a7.66,7.66,0,0,1-2.46-1.3c-2-1.51-3.63-2.69-4.84-3.53-1.75-1.22-3.94-2.62-6.51-4.18A101.15,101.15,0,0,1,440,431.85c-4.05-3.31-6.56-5.54-8-6.71a12.94,12.94,0,0,1-2.92-3,37.39,37.39,0,0,0-3.28-4.09c-1.8-2-2.58-3.11-2.51-3.42s-.9-1.73-2.61-4.24c-.82-1.21-1.59-2.42-2.31-3.64l-1.53-.33c-.5-.15-.85-.26-1.05-.34a3,3,0,0,1-.48-.19.43.43,0,0,1-.21-.34c0-.18-.74-1.5-1.87-4-.58-1.2-1.11-2.4-1.6-3.6a20.38,20.38,0,0,0,2.09,1.41c.16,0,.21-.07.12-.26s-.83-1.24-2-2.87a19.58,19.58,0,0,1-2.09-3.83,5.41,5.41,0,0,0-.95-1.77,4,4,0,0,1-.77-2.3c.07-1.46.18-2.47.25-3,.15-1.11.13-1.67-.12-1.67s-.5-.94-.63-2.8a17.41,17.41,0,0,0-.56-4.17c-.19-.42-.37-.83-.55-1.25a4.16,4.16,0,0,1,1,.27,4,4,0,0,0,1,.27c.16,0,.37-.15.62-.43.21-.93.66-1,1.33-.16l.48.14c0-.19.3-.45.89-.79a3.26,3.26,0,0,1,1.36-.53c.72.08.54.67-.47,1.73l1.66,1.13c1.11.77,2.08,1.4,2.89,1.9Zm4.93-26.91c.49-.88-.37-.44-2.46,1.25a6.71,6.71,0,0,1-2.83,1.82,1.36,1.36,0,0,0-.7.22.51.51,0,0,0-.2.43c-.13.83-1.2,3.38-2.35,7.66-.14.48,0,.33.5-.45a6.13,6.13,0,0,0,.65-.89c-.07.33-.14.66-.2,1a2.92,2.92,0,0,0,.4,2.17,4.27,4.27,0,0,0,1.67,1.84c.6.16.93.19,1,.09a4.23,4.23,0,0,0,.09-1.17,3.27,3.27,0,0,1,.25-1.46c.33-.89.23-1.45-.34-1.7-.27-.17-.13-.49.43-1s.79-.8.7-1,.08-.57.55-1.18a4.32,4.32,0,0,0,.83-2.9c-.05-2,.43-3.31,1.28-3.87A3.13,3.13,0,0,0,423.52,352.62Zm5.3,48c-1,1.4-1.78,2-2.46,1.94-.42-.05-.61-.53-.51-1.45a.87.87,0,0,1,0-.42c.13-1.67.11-3.79.11-6.38a30.68,30.68,0,0,0-.26-5.59c-.1-.25-.2-.51-.29-.77l-.18.29c-.23.39-.39.58-.47.58a1.2,1.2,0,0,1-.35-.77c0-.3-.09-.86-.16-1.66s-.11-1.36-.15-1.67a13.67,13.67,0,0,0-.39-1.59c-.2-.67-.42-1.32-.67-2a6.78,6.78,0,0,1-.36-1.14,1.05,1.05,0,0,1,.59-.15.82.82,0,0,0,.82-.67,2.05,2.05,0,0,0-.26-1.6c-.32-.71-.75-1.06-1.31-1.06a3.9,3.9,0,0,1-2-.73l-1.16-.72c0,.24,0,.49,0,.74-.11,2.76.34,4.25,1,4.46a.88.88,0,0,1,.63.53c.1.25,0,.37-.21.37-.52,0-.85,2.31.06,7,.66,3.56,1.19,5.32,1,5.31a10.71,10.71,0,0,1-.95-2.68,12.55,12.55,0,0,0-.72-2.37l-.3.27a.69.69,0,0,1-.62.4c-.4,0-1.31-1-2.54-2.88s-1.7-2.81-1.87-2.81a4,4,0,0,0-.2,1.14c0,.67-.16.81-.54.41l-.67-.45a14.09,14.09,0,0,1,.81,1.67c.46,1,1,2.14,1.63,3.36a22.29,22.29,0,0,1,1.21,2.56c.06.2,0,.29,0,.28s-.63-.47-1.37-1.37q.44,1.51,1,3c.62,1.72.91,2.58.74,2.56-.32-.4-.64-.79-.95-1.19a43.42,43.42,0,0,0,1.6,4.54,24.29,24.29,0,0,1,1.36,3.12.86.86,0,0,0,.79.76,9.43,9.43,0,0,1,3.08,2,11.17,11.17,0,0,0,3.68,2.25,19,19,0,0,1,4.1,2.22c0-.57,0-1.15,0-1.73a9.91,9.91,0,0,1,.48-3.21c.15-.49.3-1,.46-1.48l-.77-.1a1.47,1.47,0,0,1-.79-.25,9.33,9.33,0,0,1-.79-1.37C429.32,401.64,429.06,401.13,428.82,400.63Z" transform="translate(-126.55 -251.36)"/><path class="cls-1" d="M152.71,419.69a15.34,15.34,0,0,0,3.22-.71,27.8,27.8,0,0,1,1.45-3c1-1.85,1.63-3.05,2-3.59a10.35,10.35,0,0,1,2.65-2.68,54.16,54.16,0,0,1,5.52-3.23,32,32,0,0,0,3.33-1.85,5.28,5.28,0,0,0,1-1.37c.45-.75.64-1.14.59-1.19l-5,3.93a2.75,2.75,0,0,1-2.51-.19,4.81,4.81,0,0,0-1.89-.46,6.82,6.82,0,0,0-1.91.3,136.07,136.07,0,0,1-13.83,3.05c-3.47.57-5.41.84-5.81.83h-.09a70.17,70.17,0,0,1,6.8-2.11q16.8-5,20-6.27c.29-.13.23-.24-.17-.34a21.24,21.24,0,0,0-3.45-.35,28.79,28.79,0,0,0-3.81.19c-.35,0-.49,0-.44,0a5.2,5.2,0,0,1,1.58-.86,22.88,22.88,0,0,1,5.4-1.52,8.89,8.89,0,0,0,1.18-.32,9,9,0,0,1,.95-.28,4.06,4.06,0,0,1,1-.09l1.73.18c1.32.17,2.13.25,2.41.26,0,0-.16-.23-.5-.56s-.51-.51-.51-.56.3-.24.88-.46a21.64,21.64,0,0,0,2.36-1l-1.74,0c-1.15.06-1.73.05-1.73,0q0-.48,5.06-1.81a26.84,26.84,0,0,0,8.12-3.24,7.12,7.12,0,0,1,1.32-.66c.29-.08.49.06.59.43,0,.18.26.28.77.29a5.27,5.27,0,0,1,2.32,1,22.55,22.55,0,0,0,4.54,2.08,8.49,8.49,0,0,1-1.74.45l-1.09.14-1,.15-.39.06c-.06,0-.09.05-.09.14s.28.47.84,1a6.64,6.64,0,0,1,.85.87c0,.14-.53.2-1.56.17a4.5,4.5,0,0,1-1.38-.16,2,2,0,0,0-1.21-.3,3,3,0,0,0-2.18.56.93.93,0,0,1-.61.2.32.32,0,0,0-.17.06.43.43,0,0,0-.13.17.53.53,0,0,0,0,.2.68.68,0,0,1-.09.28l-.18.3q-.45.68-3.64,6.08t-4.18,7.17a21.3,21.3,0,0,0-2.2,5.49c-.13.73-.26,1.09-.37,1.09s-.14-.39-.24-1.17a2.36,2.36,0,0,0,0-.48c0-.23,0-.41,0-.55a23.79,23.79,0,0,1,1-5.66c.19-.72.38-1.4.56-2l-1.34,2.09-2.65,4.43c-.93,1.55-1.45,2.49-1.58,2.81a13.79,13.79,0,0,0-1.07,5.65c0,.19,0,.5,0,.93s0,.77,0,1a33.94,33.94,0,0,0,.63,6.8.33.33,0,0,1,0,.27c0,.09-.08.09-.13,0-.4-.33-.82-2-1.28-5a45.1,45.1,0,0,1-.62-7.31,8.35,8.35,0,0,1,1.31-4.49,2.84,2.84,0,0,0,.36-.61l-.17.13a4.72,4.72,0,0,0-.75.54c-.32.26-.63.51-.92.73a51,51,0,0,1-8.08,5.23c-2.39,1.23-3.89,2.29-4.48,3.19q-.45.81-3.7,10.73-1.31,4.15-1.65,4.14c-.12,0-.26-.3-.41-.9a3.63,3.63,0,0,1-.07-1,10.5,10.5,0,0,1,1-3.47c.3-.76.58-1.47.82-2.1L148.07,434l-3.95,2.45-1.78,2.49a141.31,141.31,0,0,1-12.19,15.28l-2,2.14-1.64,0a11.68,11.68,0,0,1,1.74-4.48c.3-.5,1.79-2.29,4.45-5.38a32.91,32.91,0,0,0,3.12-4.25,15.76,15.76,0,0,1,4.8-5.64,3,3,0,0,0,1.52-2.3,1.88,1.88,0,0,0-.79-1.49,2.8,2.8,0,0,0-1.76-.68,1.47,1.47,0,0,0-.78.18,1.46,1.46,0,0,1-.44.2l-.08-.07a1.89,1.89,0,0,1,.35-.34,11.65,11.65,0,0,1,3.67-1.56,12.82,12.82,0,0,0,4.41-1.82,3.57,3.57,0,0,0,1.06-2.78,6.45,6.45,0,0,1,.39-2.12c.48-1,1-1.48,1.5-1.47a.49.49,0,0,0,.27-.06l-.48-1.79C149.5,420.34,150.57,420.08,152.71,419.69Zm-4.4,11.44c-.59.58-1.09,1.11-1.51,1.58s-.59.7-.53.71a21,21,0,0,0,3.15-1.72,15,15,0,0,0,3-2,1.42,1.42,0,0,0-.24-.83.58.58,0,0,0-.69-.22,13.06,13.06,0,0,0-1.76,1.19A16.83,16.83,0,0,0,148.31,431.13Zm9.38-13.55a6,6,0,0,0-.45.88s.12,0,.35-.2q.09-.06,10.53-10.38a33.79,33.79,0,0,0-4.74,3A22,22,0,0,0,157.69,417.58Zm20.57-14.2c-.06.05-.06.1,0,.17s.09.06.09,0S178.32,403.34,178.26,403.38Z" transform="translate(-126.55 -251.36)"/><path class="cls-1" d="M460.88,428.77l-.39,1.45a.34.34,0,0,0,.22,0c.42,0,.83.39,1.22,1.19a4.91,4.91,0,0,1,.32,1.71,2.89,2.89,0,0,0,.87,2.25,10.57,10.57,0,0,0,3.6,1.47,9.19,9.19,0,0,1,3,1.27,1.11,1.11,0,0,1,.29.27l-.07.05a1,1,0,0,1-.36-.15,1.24,1.24,0,0,0-.64-.16,2.34,2.34,0,0,0-1.43.56,1.51,1.51,0,0,0-.65,1.21,2.44,2.44,0,0,0,1.24,1.85,12.88,12.88,0,0,1,3.93,4.57,25.52,25.52,0,0,0,2.55,3.43q3.26,3.75,3.63,4.35a9.1,9.1,0,0,1,1.42,3.62l-1.34,0-1.59-1.74a114.81,114.81,0,0,1-10-12.34l-1.46-2-3.22-2-3.37-2c.2.51.42,1.08.67,1.7a8.16,8.16,0,0,1,.84,2.8,3.41,3.41,0,0,1-.05.78c-.13.48-.25.72-.34.73s-.64-1.12-1.35-3.35c-1.77-5.35-2.77-8.24-3-8.68a10.22,10.22,0,0,0-3.66-2.58,40.68,40.68,0,0,1-6.6-4.23c-.25-.18-.5-.37-.76-.59a4,4,0,0,0-.61-.43l-.14-.11a2.16,2.16,0,0,0,.29.5,6.61,6.61,0,0,1,1.07,3.63,36.06,36.06,0,0,1-.51,5.9c-.37,2.43-.72,3.77-1,4-.05.08-.08.08-.11,0a.29.29,0,0,1,0-.22,26.4,26.4,0,0,0,.52-5.49c0-.19,0-.45,0-.81s0-.6,0-.74a11.23,11.23,0,0,0-.88-4.58,25.15,25.15,0,0,0-1.29-2.27l-2.17-3.58-1.09-1.69c.15.51.3,1.07.46,1.65a19.59,19.59,0,0,1,.81,4.58,4.21,4.21,0,0,1,0,.44q0,.28,0,.39c-.08.63-.14,1-.19,1s-.2-.29-.3-.88a17.3,17.3,0,0,0-1.8-4.45q-.81-1.42-3.41-5.79c-1.74-2.91-2.74-4.56-3-4.92a2.52,2.52,0,0,1-.15-.24.71.71,0,0,1-.07-.23.34.34,0,0,0,0-.16.49.49,0,0,0-.11-.14.3.3,0,0,0-.14-.05.78.78,0,0,1-.5-.15,2.44,2.44,0,0,0-1.78-.46,1.64,1.64,0,0,0-1,.24,3.91,3.91,0,0,1-1.13.14c-.85,0-1.28,0-1.28-.14a5.05,5.05,0,0,1,.69-.71c.46-.43.69-.71.69-.82s0-.11-.07-.11a1.29,1.29,0,0,1-.32,0,7.37,7.37,0,0,0-.78-.12l-.89-.12a7,7,0,0,1-1.42-.36,18.44,18.44,0,0,0,3.71-1.69,4.24,4.24,0,0,1,1.89-.81q.64,0,.63-.24c.09-.3.25-.41.49-.34a5.08,5.08,0,0,1,1.08.53A22.26,22.26,0,0,0,437.2,407c2.75.71,4.13,1.2,4.14,1.46,0,.07-.47.08-1.42,0l-1.41,0a17.62,17.62,0,0,0,1.93.85c.47.17.71.3.71.37a2,2,0,0,1-.41.45,2.48,2.48,0,0,0-.42.45c.24,0,.9-.07,2-.2l1.41-.15a3.25,3.25,0,0,1,.82.07c.21.05.47.13.78.23a9.65,9.65,0,0,0,1,.26,18.1,18.1,0,0,1,4.41,1.23,4.11,4.11,0,0,1,1.29.69s-.07,0-.35,0a24.94,24.94,0,0,0-3.12-.15,18,18,0,0,0-2.82.29c-.33.08-.38.17-.14.28q2.64,1,16.39,5.06a54.78,54.78,0,0,1,5.55,1.71h-.07c-.33,0-1.91-.22-4.75-.67a110.12,110.12,0,0,1-11.31-2.47,5.49,5.49,0,0,0-1.56-.24,3.82,3.82,0,0,0-1.55.37,2.22,2.22,0,0,1-2,.15l-4.11-3.17s.12.35.48,1a4.53,4.53,0,0,0,.84,1.11,28.74,28.74,0,0,0,2.72,1.49,42.48,42.48,0,0,1,4.52,2.62,8.4,8.4,0,0,1,2.17,2.16c.29.44.83,1.41,1.62,2.9a19.59,19.59,0,0,1,1.18,2.41,13.17,13.17,0,0,0,2.63.58A8.81,8.81,0,0,1,460.88,428.77Zm-23.57-13.71c0,.08,0,.09.07,0s0-.1,0-.14S437.31,415,437.31,415.06ZM449.54,421a26.5,26.5,0,0,0-3.88-2.41q8.54,8.34,8.61,8.39c.19.15.28.2.28.16a5.3,5.3,0,0,0-.37-.71A17.68,17.68,0,0,0,449.54,421Zm11.16,15.36a10.71,10.71,0,0,0-1.44-1,.47.47,0,0,0-.56.18,1.07,1.07,0,0,0-.2.67,12.72,12.72,0,0,0,2.44,1.6,17.09,17.09,0,0,0,2.58,1.39c.05,0-.1-.2-.44-.58s-.75-.8-1.23-1.27A13.07,13.07,0,0,0,460.7,436.36Z" transform="translate(-126.55 -251.36)"/><path class="cls-1" d="M428.6,340.49a5.77,5.77,0,0,0-.66-1.29c-.44-.73-.87-1.44-1.31-2.12s-.62-1-.57-1l.73.37a5,5,0,0,0,2,1l.07-.07a14.69,14.69,0,0,0-1.69-4.62l-.71-1.46,0-2.85a24.48,24.48,0,0,1,.28-3.95l.12-.55a1.65,1.65,0,0,1,.13-.41l.06-.2.24.6a13.9,13.9,0,0,0,1.38,4.15q.54,1,.69,1a52,52,0,0,0,.6-5.62c.31-3.65.62-7.3.93-10.93s.49-5.45.54-5.45c.23,0,.46,2.54.66,7.64.09,2.44.14,4.14.13,5.09,0,2.08,0,3.14,0,3.19a3.08,3.08,0,0,0,1,2.2c.55.56.83,1,.84,1.18a21.6,21.6,0,0,1-2.21,4.09c-.49.84-.69,1.25-.6,1.25.24,0,1-.74,2.36-2.2a41.21,41.21,0,0,0,3.08-3.72q6.59-9.15,6.92-9.84a2.64,2.64,0,0,0,.31-1.37c0-.09,0-.33-.07-.74s-.07-.77-.08-1.08,0-.54-.07-.95-.07-.67-.07-.81,0-.38,0-.61l.05-.34c0-.23.37-.36,1-.38s.93-.13.92-.31c0-.9.94-1.69,2.92-2.35a4.42,4.42,0,0,0,2.38-1.52,8.67,8.67,0,0,0,.72-3.56c.16-2,.45-3.16.87-3.49.09-.1.14-.1.14,0l-.07.14c0,.18,0,.32,0,.41a1.43,1.43,0,0,0,.58,1,2.49,2.49,0,0,0,1.06.61,1,1,0,0,1,.22,0l.21,0a3.82,3.82,0,0,0,2.46-1.39q.27-.28,5.76-6.74t6-6.89a12,12,0,0,1,3.7-2.45c1.13-.45,1.68-.54,1.64-.27a171.37,171.37,0,0,1-17.37,19.42q-2.76,2.82-3.1,3.31c-1.27,1.72-1.89,2.88-1.87,3.47,0,0,.1.08.29.12a2.16,2.16,0,0,0,.72,0,5.28,5.28,0,0,0,.78-.13,13.56,13.56,0,0,0,3.37-2,7.85,7.85,0,0,1,3.8-1.71c.62,0,.94,0,.94.09l-10.29,6.25-.15.07-.27.15a2.69,2.69,0,0,0-.36.22,2.93,2.93,0,0,1-.35.21,6.85,6.85,0,0,0-2.15,1.85,10.5,10.5,0,0,0-1.24,2.9,38.61,38.61,0,0,1-4.3,9.23,31.33,31.33,0,0,1-6.3,7.47l-.76.64,1.19-.72a41.94,41.94,0,0,1,8.08-4,9.57,9.57,0,0,1,2.07-.42h.14q0,.14-.84.51a28.45,28.45,0,0,0-4.82,3.11c-.89.66-2.86,2.34-5.94,5s-4.79,4.21-5.16,4.58-.5.57-.69.57-.41.63-.36,1.85a1.52,1.52,0,0,0,.55,1.13,4.26,4.26,0,0,1,.88,2.41,8.08,8.08,0,0,1-1.31-.49c-.73-.38-1.09-.5-1.09-.36v.13a2.15,2.15,0,0,0,.05.37c0,.2.06.46.1.78s.06.58.07.81l.2,1.62-.67-.72a11.67,11.67,0,0,0-3-2.46c-.68-.38-1.06-.79-1.12-1.24a3.11,3.11,0,0,0-.05-.34,1.6,1.6,0,0,1-.05-.27,3.67,3.67,0,0,1,.63-2.23,3.17,3.17,0,0,1,1.81-1.33l.71-.23-.09-2.44.43.05.87.24Z" transform="translate(-126.55 -251.36)"/><path class="cls-1" d="M179.84,340.44l.87-.24.43-.05-.1,2.44.71.23a3.14,3.14,0,0,1,1.81,1.33,3.54,3.54,0,0,1,.63,2.23,1.31,1.31,0,0,1,0,.27,1.74,1.74,0,0,0-.05.34c-.07.45-.44.86-1.13,1.24a11.84,11.84,0,0,0-3,2.46l-.67.72.21-1.62c0-.23,0-.5.07-.81s.07-.58.1-.78.05-.32.05-.37v-.13c0-.14-.35,0-1.09.36a7.44,7.44,0,0,1-1.31.49,4.25,4.25,0,0,1,.89-2.41,1.52,1.52,0,0,0,.55-1.13c0-1.22-.08-1.84-.36-1.85s-.42-.19-.7-.57-2.08-1.9-5.16-4.58-5-4.35-5.93-5a28.46,28.46,0,0,0-4.83-3.11q-.84-.37-.84-.51h.15a9.62,9.62,0,0,1,2.06.42,42,42,0,0,1,8.09,4l1.19.72-.76-.64a31.35,31.35,0,0,1-6.31-7.47,38.57,38.57,0,0,1-4.29-9.23,10.48,10.48,0,0,0-1.25-2.9,6.74,6.74,0,0,0-2.15-1.85l-.35-.21a3.57,3.57,0,0,0-.35-.22l-.28-.15-.14-.07-10.3-6.25c0-.09.32-.12.94-.09a7.81,7.81,0,0,1,3.8,1.71,13.74,13.74,0,0,0,3.37,2,5.76,5.76,0,0,0,.78.13,2.15,2.15,0,0,0,.72,0c.19,0,.29-.08.29-.12,0-.59-.6-1.75-1.87-3.47-.22-.33-1.26-1.43-3.09-3.31a172.46,172.46,0,0,1-17.38-19.42c0-.27.51-.18,1.64.27a12,12,0,0,1,3.7,2.45q.49.44,6,6.89c3.66,4.31,5.57,6.55,5.76,6.74a3.87,3.87,0,0,0,2.45,1.39l.22,0a.59.59,0,0,1,.21,0,2.52,2.52,0,0,0,1.07-.61,1.47,1.47,0,0,0,.58-1c0-.08,0-.22,0-.4l-.06-.14c0-.09,0-.09.14,0,.42.33.7,1.49.86,3.49a8.62,8.62,0,0,0,.73,3.56,4.39,4.39,0,0,0,2.37,1.52c2,.66,3,1.45,2.92,2.35,0,.18.3.28.92.31s.95.15,1,.38l.06.34c0,.23,0,.43,0,.61s0,.4-.06.81-.07.72-.08.95,0,.67-.07,1.08-.07.65-.07.74a2.63,2.63,0,0,0,.3,1.37c.23.46,2.53,3.74,6.93,9.84a38.06,38.06,0,0,0,3.08,3.72c1.33,1.46,2.11,2.19,2.35,2.2s-.1-.41-.59-1.25a20.92,20.92,0,0,1-2.21-4.09c0-.22.29-.62.84-1.18a3.11,3.11,0,0,0,1-2.2c0-.05,0-1.11,0-3.19,0-1,0-2.65.13-5.09q.3-7.65.66-7.64c.05,0,.23,1.82.54,5.45s.62,7.28.93,10.93a52,52,0,0,0,.6,5.62c.09,0,.32-.33.68-1a13.64,13.64,0,0,0,1.39-4.15l.24-.6.06.2a2.22,2.22,0,0,1,.13.41l.12.55a26.43,26.43,0,0,1,.27,3.95l0,2.85-.7,1.46a14.43,14.43,0,0,0-1.69,4.62l.07.07a5,5,0,0,0,2.05-1l.73-.37c.05,0-.15.34-.58,1s-.87,1.39-1.3,2.12a4.92,4.92,0,0,0-.66,1.29Z" transform="translate(-126.55 -251.36)"/><path class="cls-1" d="M432.34,363.42q.24.42.09.33a4.89,4.89,0,0,1-.86-1.14,10.19,10.19,0,0,1-1.06-7.7s0-.05-.14-.05a2.92,2.92,0,0,0-.45.05,6,6,0,0,0-.6.13,7.78,7.78,0,0,1-4.24-.16,15.49,15.49,0,0,1-2.17-.95.69.69,0,0,1-.17-.17l-.05,0c-.05-.08.09-.11.41-.11l1,0a9.1,9.1,0,0,0,4-.43,18.39,18.39,0,0,0,3.36-1.93,10.66,10.66,0,0,0,2.52-2.17l.3-.51c.11-.18.14-.27.11-.29a6.55,6.55,0,0,0-1.62.71,14.27,14.27,0,0,1-2.11,1,1.13,1.13,0,0,1-.64-.1.93.93,0,0,1-.43-.75,1.45,1.45,0,0,1,.21-1,3.48,3.48,0,0,1,2.19-1.21c.33-.08,1.19-.38,2.57-.9a7.13,7.13,0,0,0,3.55-2.43,2.92,2.92,0,0,0,.25-2.29,2.12,2.12,0,0,1,.11-1.48,4.31,4.31,0,0,1,2.58-1.39,3.6,3.6,0,0,0,2.34-1.33,5,5,0,0,0,.42-1.29q.22-1.18.52-5.9c.25-3.21.41-4.89.49-5l.05,0a3.38,3.38,0,0,1,.74,1.28,14.78,14.78,0,0,1,.73,2.11,15.5,15.5,0,0,1,.08,6.76,15.32,15.32,0,0,1-1.62,5,1.1,1.1,0,0,1-.87.53.87.87,0,0,0-.79.51,5.26,5.26,0,0,0-.65,1.43l.84-.13a3.73,3.73,0,0,0,1.4-.35l.54-.31.08-.72a1.54,1.54,0,0,1,.19-.79,1.75,1.75,0,0,1,1.34-.6,19.38,19.38,0,0,0,3.25-.71,2.48,2.48,0,0,0,1.32-1.1,5.37,5.37,0,0,0,.44-1.31,5.44,5.44,0,0,1,.47-1.36l.24-.42,1.21.44a19.21,19.21,0,0,0,7.84.92,5.85,5.85,0,0,0,2.79-.57,6.71,6.71,0,0,0,.64-1.43c.26-.59.41-.92.46-1a3.58,3.58,0,0,1,2-1.2,8.33,8.33,0,0,0,3.48-2,33.32,33.32,0,0,0,3.46-5.2q2.6-4.32,2.8-4.2t0,1a32.72,32.72,0,0,1-3.69,9l-.46.77a4.54,4.54,0,0,1-1,1.25,6.16,6.16,0,0,1-1.69.6,6.69,6.69,0,0,0-4,2.89l-.37.62.82.28a23.59,23.59,0,0,1,3.78,2c.86.51,1.43.88,1.72,1.1a12.73,12.73,0,0,1,3.81,4.37,4.32,4.32,0,0,1,.19,1c0,.44,0,.68-.11.7a11.05,11.05,0,0,1-.93-1.12,18,18,0,0,0-4.32-3.77l-.57-.34a12.28,12.28,0,0,0-3-1.3,16.32,16.32,0,0,0-7.26-.14,4.44,4.44,0,0,1-3.16-.21,1,1,0,0,0-1-.14,2.05,2.05,0,0,0-.61.68,2.64,2.64,0,0,0,0,2.94c.24.37.47.58.68.61s.25.1.26.16a1,1,0,0,1-.52.17,5.21,5.21,0,0,1-2.75-1,6.63,6.63,0,0,0-2.33-.9l.42.46a3.77,3.77,0,0,0,.89.74,14.86,14.86,0,0,0,3.91,1.29,19,19,0,0,1,3.68,1.08,1.17,1.17,0,0,1,.57.69c0,.06,0,1.32-.1,3.79q-.11,4.28-.07,6l0,2.61-.05,0c-.24-.14-.56-1-1-2.68a14.67,14.67,0,0,1-.15-6.53c.29-1.5.08-2.47-.64-2.9a4,4,0,0,0-1.61-.47,26,26,0,0,0-3-.09,13.77,13.77,0,0,1-4.62-.45,4.39,4.39,0,0,0-2.93-.14,7.17,7.17,0,0,0-1.61.71,4.17,4.17,0,0,0-1.16.77c0,.07.15.33.59.77a41.8,41.8,0,0,1,3.57,4.31,34.91,34.91,0,0,0,3.68,4.37l.91.82-1.2-.58-.42-.22a4.86,4.86,0,0,1-.53-.28,19.34,19.34,0,0,1-3.55-2.61c-.11-.11-.66-.79-1.65-2A8.52,8.52,0,0,0,442.5,349a2.18,2.18,0,0,0-1.18-.36c-1.2,0-2.47.69-3.8,2.13-.76.81-1.39,1.43-1.89,1.88a6.43,6.43,0,0,0-1,1.13c-.16.28-.57,1.21-1.22,2.8s-1,2.63-1.19,3.1A4.72,4.72,0,0,0,432.34,363.42Z" transform="translate(-126.55 -251.36)"/><path class="cls-1" d="M179.9,351.1c-.17-.46-.62-1.47-1.36-3a29.94,29.94,0,0,0-1.37-2.73,5.73,5.73,0,0,0-1.09-1.08c-.52-.42-1.19-1-2-1.77q-2.11-2-3.9-1.92A2.29,2.29,0,0,0,169,341a8.91,8.91,0,0,0-2.05,2.33q-1.36,1.94-1.53,2.13a19.86,19.86,0,0,1-3.39,2.79l-.52.32a2.94,2.94,0,0,0-.41.24l-1.16.64.86-.87a35.17,35.17,0,0,0,3.43-4.57,43,43,0,0,1,3.33-4.49c.41-.47.59-.74.55-.81a4.49,4.49,0,0,0-1.21-.7,7.88,7.88,0,0,0-1.65-.63,4.47,4.47,0,0,0-2.91.31,13.87,13.87,0,0,1-4.59.71,23.52,23.52,0,0,0-2.94.25,3.81,3.81,0,0,0-1.58.56c-.69.47-.85,1.45-.48,2.93a14.67,14.67,0,0,1,.21,6.52c-.32,1.67-.6,2.58-.83,2.74l-.05,0-.1-2.61q-.06-1.69-.41-6c-.21-2.46-.31-3.72-.3-3.77a1.11,1.11,0,0,1,.53-.72,18,18,0,0,1,3.62-1.29,14.9,14.9,0,0,0,3.83-1.51,3.48,3.48,0,0,0,.84-.78l.4-.49a6.82,6.82,0,0,0-2.27,1,5.24,5.24,0,0,1-2.69,1.17,1,1,0,0,1-.54-.15c0-.06.1-.11.25-.17s.43-.26.65-.65a2.65,2.65,0,0,0-.17-2.93,2,2,0,0,0-.65-.64,1,1,0,0,0-1,.19,4.42,4.42,0,0,1-3.15.38,16.22,16.22,0,0,0-7.23.55,11.8,11.8,0,0,0-2.92,1.46l-.55.37a18.15,18.15,0,0,0-4.1,4,12.74,12.74,0,0,1-.88,1.17c-.11,0-.16-.26-.14-.7a4.18,4.18,0,0,1,.13-1,12.64,12.64,0,0,1,3.57-4.59c.27-.23.83-.63,1.66-1.19a22.62,22.62,0,0,1,3.66-2.18l.8-.33-.41-.59a6.63,6.63,0,0,0-4.19-2.67,5.65,5.65,0,0,1-1.72-.51,4.44,4.44,0,0,1-1-1.19l-.5-.74a32.4,32.4,0,0,1-4.19-8.76c-.2-.59-.22-.94,0-1.05s1.14,1.25,3,4a34.41,34.41,0,0,0,3.74,5,8.55,8.55,0,0,0,3.59,1.78,3.62,3.62,0,0,1,2,1.08c0,.07.21.39.5,1a6.3,6.3,0,0,0,.73,1.4,5.81,5.81,0,0,0,2.81.41,19.42,19.42,0,0,0,7.78-1.35l1.18-.5.27.4a5.69,5.69,0,0,1,.54,1.33,5.35,5.35,0,0,0,.51,1.29,2.51,2.51,0,0,0,1.38,1,19.15,19.15,0,0,0,3.29.53,1.75,1.75,0,0,1,1.36.52,1.5,1.5,0,0,1,.24.78l.12.72.55.28a4,4,0,0,0,1.42.27l.85.08a5.7,5.7,0,0,0-.73-1.39.86.86,0,0,0-.81-.46,1.11,1.11,0,0,1-.91-.48,15.63,15.63,0,0,1-1.89-4.95,15.43,15.43,0,0,1-.29-6.75,13.9,13.9,0,0,1,.61-2.15,3.49,3.49,0,0,1,.66-1.32l.05,0a48.51,48.51,0,0,1,.77,5c.37,3.13.65,5.08.85,5.87a4.58,4.58,0,0,0,.49,1.26,3.57,3.57,0,0,0,2.4,1.2,4.32,4.32,0,0,1,2.66,1.25,2.05,2.05,0,0,1,.19,1.46,2.92,2.92,0,0,0,.38,2.28,7,7,0,0,0,3.68,2.22c1.41.45,2.28.7,2.61.77a3.47,3.47,0,0,1,2.26,1.08,1.5,1.5,0,0,1,.26,1,.93.93,0,0,1-.39.77,1.13,1.13,0,0,1-.63.14,14,14,0,0,1-2.17-.85,5.89,5.89,0,0,0-1.65-.62s0,.11.12.28l.34.49a10.64,10.64,0,0,0,2.63,2,18.4,18.4,0,0,0,3.47,1.75,9.48,9.48,0,0,0,4,.21l1-.08c.32,0,.46,0,.41.08l0,0a.59.59,0,0,1-.17.18,14.67,14.67,0,0,1-2.11,1.06,7.7,7.7,0,0,1-4.22.39l-.61-.09a2.46,2.46,0,0,0-.45,0c-.12,0-.16,0-.14.06a10.2,10.2,0,0,1-.63,7.74,4.92,4.92,0,0,1-.79,1.18q-.15.1.06-.33A4.71,4.71,0,0,0,179.9,351.1Z" transform="translate(-126.55 -251.36)"/><path class="cls-1" d="M345.94,450.43a35,35,0,0,1,15-13.32,2.91,2.91,0,0,0,.47-.21c.16-.09.13-.16-.07-.23a11,11,0,0,0-2.28,0c-.76,0-1.42.06-2,.05.51,0,3.16-1.15,7.92-3.38a17,17,0,0,0,1.46-.89,4.47,4.47,0,0,0,1-.81s0-.16,0-.36a6.15,6.15,0,0,1-.22-.65,3.51,3.51,0,0,1-.12-.47l0-.42q-9.12,4.77-9.71,4.8s0,0,0-.12a2.16,2.16,0,0,1,.31-.32l.41-.35a3.7,3.7,0,0,1,.4-.35,86.29,86.29,0,0,1,10-7,15.13,15.13,0,0,0,2.17-1.5,9.42,9.42,0,0,0,2.25-5.53,66,66,0,0,0-1.59-7.13c-.61-2.33-1.14-4.46-1.61-6.4l.19.23a32.23,32.23,0,0,1,3.29,6.31c.42,1.06.69,1.59.81,1.58s.2-.65.25-1.94c0-.88,0-1.68,0-2.4a59.78,59.78,0,0,0-.79-6.75c-.06-.35-.24-1.36-.56-3s-.55-3-.72-3.93c-.47-2.65-.71-4.12-.73-4.4s0-.36.11-.37l.06.06,1.7,4.65q1.49,4.13,2,5.12a1.66,1.66,0,0,0,1.55.94,10.56,10.56,0,0,0,3.46-1.69l2-1.13-1.31,1.39q-1.31,1.46-2.85,3.34a16.39,16.39,0,0,0-2,2.81,3.06,3.06,0,0,0-.28,1.52,28.22,28.22,0,0,0,1.33,5.58,13.58,13.58,0,0,1,.54,2.25c0,.6-.47,1.31-1.5,2.13a2.92,2.92,0,0,0-1.32,2.29,10.29,10.29,0,0,0,1.32,3.29,18,18,0,0,1,1.75,4.48,15.68,15.68,0,0,1,.6,3.21c0,.2,0,.3-.05.3s-.2-.15-.47-.45-.6-.7-1-1.18-.66-.9-.88-1.25a21,21,0,0,1-2.27-4.26l-.28-.7-.2.73a5.64,5.64,0,0,1-3.62,4.1,5.75,5.75,0,0,1-1.19.31l-.48,0,.56.27a4.51,4.51,0,0,0,1,.37,1.41,1.41,0,0,1,.51.09c.07,0,.12.17.18.41a1,1,0,0,0,0,.24,1,1,0,0,1,0,.24,4.58,4.58,0,0,1-.58,2.43,5.35,5.35,0,0,1-1.7,2c-.35.22-.52.36-.52.42s.21.12.61.17a.33.33,0,0,1,.33.41,2.37,2.37,0,0,1-1,1.37,18.59,18.59,0,0,0-3.16,2.64,28.85,28.85,0,0,0-3.19,4.32c-.22.37-.44.73-.66,1.06a18.07,18.07,0,0,1,.55-1.89,20.29,20.29,0,0,0,.7-2.15c.25-.89.45-1.68.59-2.37a3.42,3.42,0,0,0,.15-1,5.82,5.82,0,0,0-1.32,1c-.77.66-1.38,1.23-1.83,1.7l-1,1,.54,0c.32,0,.48,0,.49.1q0,.42-2.19,1.8a18.51,18.51,0,0,1-2.86,1.48,19.56,19.56,0,0,0-3.27,1.74,7.67,7.67,0,0,0-1.81,2c-1.42,2-2.65,3.19-3.72,3.45-.28.05-.42,0-.43-.22A3.55,3.55,0,0,1,345.94,450.43Z" transform="translate(-126.55 -251.36)"/><path class="cls-1" d="M194.53,360.21c-.18-.28-.21-.39-.11-.33a4.65,4.65,0,0,1,.92,1.09,10.18,10.18,0,0,1,1.48,7.63s0,0,.15,0a3.5,3.5,0,0,0,.44-.07c.18,0,.38-.09.6-.16a7.71,7.71,0,0,1,4.24-.07,14.63,14.63,0,0,1,2.21.82.48.48,0,0,1,.18.17l.05,0c.06.08-.08.12-.4.13l-1,0a9.3,9.3,0,0,0-3.93.65,17.68,17.68,0,0,0-3.25,2.12,11.09,11.09,0,0,0-2.4,2.29l-.28.53c-.09.18-.12.28-.08.3a6.75,6.75,0,0,0,1.57-.8,13.13,13.13,0,0,1,2.06-1.08,1.16,1.16,0,0,1,.65.06,1,1,0,0,1,.46.72,1.48,1.48,0,0,1-.15,1,3.45,3.45,0,0,1-2.12,1.32q-.49.15-2.52,1.05a7,7,0,0,0-3.41,2.61,2.94,2.94,0,0,0-.13,2.31,2,2,0,0,1,0,1.47,4.26,4.26,0,0,1-2.5,1.53,3.66,3.66,0,0,0-2.26,1.46,5,5,0,0,0-.35,1.31c-.1.8-.17,2.78-.2,5.92s-.14,4.91-.21,5l-.06,0a3.62,3.62,0,0,1-.8-1.24,15.39,15.39,0,0,1-.85-2.07,15.66,15.66,0,0,1-.45-6.75,15.3,15.3,0,0,1,1.35-5.12,1.09,1.09,0,0,1,.84-.58A.87.87,0,0,0,185,383a5.59,5.59,0,0,0,.57-1.47l-.84.17a3.73,3.73,0,0,0-1.37.43l-.52.34,0,.72a1.65,1.65,0,0,1-.15.81,1.8,1.8,0,0,1-1.3.67,19.1,19.1,0,0,0-3.22.88,2.56,2.56,0,0,0-1.26,1.17,5.92,5.92,0,0,0-.36,1.33,5.73,5.73,0,0,1-.39,1.39l-.22.43-1.23-.38a19.34,19.34,0,0,0-7.88-.48,5.72,5.72,0,0,0-2.75.72,5.91,5.91,0,0,0-.57,1.46c-.23.61-.36.94-.4,1a3.56,3.56,0,0,1-1.9,1.3,8.62,8.62,0,0,0-3.38,2.16,35.87,35.87,0,0,0-3.17,5.38c-1.56,3-2.42,4.43-2.56,4.35s-.2-.44-.06-1a32.62,32.62,0,0,1,3.2-9.16l.42-.8a4.32,4.32,0,0,1,.89-1.29,5.49,5.49,0,0,1,1.65-.69,6.65,6.65,0,0,0,3.87-3.12l.34-.63-.83-.24a22.36,22.36,0,0,1-3.88-1.77c-.89-.46-1.48-.8-1.78-1a12.64,12.64,0,0,1-4-4.16,3.78,3.78,0,0,1-.25-1c-.07-.44,0-.67.07-.71a11.59,11.59,0,0,1,1,1.07,18,18,0,0,0,4.52,3.53l.58.31a12.63,12.63,0,0,0,3.07,1.14,16.3,16.3,0,0,0,7.25-.26,4.45,4.45,0,0,1,3.16,0,1,1,0,0,0,1.05.08,2.11,2.11,0,0,0,.58-.71,2.63,2.63,0,0,0-.16-2.93c-.26-.37-.49-.56-.71-.58s-.25-.09-.26-.14a1,1,0,0,1,.51-.21,5.3,5.3,0,0,1,2.8.87,6.83,6.83,0,0,0,2.37.77l-.44-.44a4,4,0,0,0-.93-.69,14.7,14.7,0,0,0-4-1.07,18.08,18.08,0,0,1-3.73-.89,1.1,1.1,0,0,1-.61-.65c0-.06-.05-1.32-.11-3.79q-.12-4.26-.25-6l-.19-2.61.06,0a6.72,6.72,0,0,1,1.12,2.62,14.59,14.59,0,0,1,.51,6.51c-.21,1.52.06,2.47.8,2.86a3.8,3.8,0,0,0,1.63.38,23.7,23.7,0,0,0,3-.07,13.47,13.47,0,0,1,4.64.21,4.53,4.53,0,0,0,2.93,0,8,8,0,0,0,1.57-.8,4.26,4.26,0,0,0,1.12-.84c0-.07-.17-.31-.63-.73a42.47,42.47,0,0,1-3.81-4.11,34,34,0,0,0-3.91-4.16l-1-.77,1.23.51.44.19c.22.1.4.18.54.26a19.38,19.38,0,0,1,3.68,2.41c.12.11.71.75,1.76,1.94a8.66,8.66,0,0,0,2.29,2.09,2.21,2.21,0,0,0,1.2.29q1.8-.07,3.67-2.34c.72-.84,1.31-1.5,1.79-2a6.27,6.27,0,0,0,1-1.19c.15-.29.51-1.24,1.07-2.86s.9-2.68,1-3.16A4.7,4.7,0,0,0,194.53,360.21Z" transform="translate(-126.55 -251.36)"/><path class="cls-1" d="M421.09,361.36q.07.74.57,3.27c.34,1.69.56,2.68.67,3a6,6,0,0,0,.79,1.31c.41.53.91,1.27,1.5,2.2,1,1.67,2.13,2.61,3.32,2.82a2.17,2.17,0,0,0,1.23-.13,8.63,8.63,0,0,0,2.55-1.75q1.8-1.55,2-1.68a19.81,19.81,0,0,1,4-1.89l.57-.17.46-.14,1.28-.33-1,.63a34.91,34.91,0,0,0-4.45,3.58,40.85,40.85,0,0,1-4.33,3.55c-.51.35-.75.57-.73.64a4.47,4.47,0,0,0,1,1,7.77,7.77,0,0,0,1.45,1,4.42,4.42,0,0,0,2.89.42,13.65,13.65,0,0,1,4.63.44,24.59,24.59,0,0,0,2.91.47,4,4,0,0,0,1.67-.15c.79-.29,1.18-1.2,1.18-2.73a14.74,14.74,0,0,1,1.4-6.37c.72-1.54,1.21-2.36,1.47-2.45l.06,0-.55,2.55c-.23,1.11-.59,3.07-1.06,5.88-.39,2.44-.6,3.68-.63,3.73a1.13,1.13,0,0,1-.68.57,18.31,18.31,0,0,1-3.83.36,15.51,15.51,0,0,0-4.09.52,4,4,0,0,0-1,.56l-.5.37a6.61,6.61,0,0,0,2.46-.44,5.26,5.26,0,0,1,2.89-.47,1.14,1.14,0,0,1,.48.27c0,.06-.12.09-.28.11s-.48.15-.79.47a2.63,2.63,0,0,0-.55,2.88,2.07,2.07,0,0,0,.47.79,1,1,0,0,0,1.05.07,4.39,4.39,0,0,1,3.14.39,16.29,16.29,0,0,0,7.15,1.24A11.75,11.75,0,0,0,455,387l.62-.22a17.69,17.69,0,0,0,5-2.88,11.15,11.15,0,0,1,1.13-.92c.11,0,.1.29,0,.71a4.15,4.15,0,0,1-.38,1,12.51,12.51,0,0,1-4.58,3.57c-.32.16-1,.41-1.9.75a23.09,23.09,0,0,1-4.08,1.23l-.85.11.24.68a6.67,6.67,0,0,0,3.41,3.62,5.7,5.7,0,0,1,1.54.9,4.66,4.66,0,0,1,.71,1.41l.3.85a32.3,32.3,0,0,1,1.91,9.51c.06.62,0,1-.2,1s-.8-1.49-1.94-4.65a35.69,35.69,0,0,0-2.4-5.77,8.5,8.5,0,0,0-3.05-2.6,3.6,3.6,0,0,1-1.71-1.55c0-.07-.11-.43-.25-1.06a6.68,6.68,0,0,0-.37-1.52,5.71,5.71,0,0,0-2.62-1.1,19.43,19.43,0,0,0-7.88-.59l-1.26.2-.17-.45a5.72,5.72,0,0,1-.19-1.43,6,6,0,0,0-.18-1.37,2.59,2.59,0,0,0-1.09-1.33,20,20,0,0,0-3.06-1.32q-1-.33-1.2-.84a1.65,1.65,0,0,1,0-.81l.06-.73L430,381a3.62,3.62,0,0,0-1.3-.61l-.81-.29a5.77,5.77,0,0,0,.37,1.53.88.88,0,0,0,.68.65,1.05,1.05,0,0,1,.75.68,18.73,18.73,0,0,1-.74,11.88,14.26,14.26,0,0,1-1.12,1.94,3.46,3.46,0,0,1-1,1.11l-.06,0a45.41,45.41,0,0,1,.48-5q.6-4.68.61-5.9a4.67,4.67,0,0,0-.17-1.34,3.62,3.62,0,0,0-2-1.75c-1.29-.64-2.05-1.26-2.26-1.86a2,2,0,0,1,.17-1.47,3,3,0,0,0,.19-2.3,7,7,0,0,0-3-3.05c-1.26-.78-2.05-1.24-2.35-1.39a3.41,3.41,0,0,1-1.92-1.6,1.46,1.46,0,0,1,0-1,1,1,0,0,1,.56-.66,1.23,1.23,0,0,1,.65,0,13.09,13.09,0,0,1,1.89,1.35,6.31,6.31,0,0,0,1.45,1s0-.11,0-.3l-.21-.57a10.51,10.51,0,0,0-2.06-2.6,18.07,18.07,0,0,0-2.93-2.55,9.21,9.21,0,0,0-3.8-1.17l-1-.17c-.31-.05-.44-.11-.38-.18l.05,0a.7.7,0,0,1,.21-.14,15.24,15.24,0,0,1,2.3-.51,7.75,7.75,0,0,1,4.19.65l.57.25.43.13q.18,0,.15,0a10.17,10.17,0,0,1,2.51-7.35,5.19,5.19,0,0,1,1.06-1c.11,0,.06.07-.15.31A4.71,4.71,0,0,0,421.09,361.36Z" transform="translate(-126.55 -251.36)"/><path class="cls-1" d="M226.44,355.47l.82-.2.4,0-.13,2.22.66.23a2.9,2.9,0,0,1,1.66,1.24,3.25,3.25,0,0,1,.55,2.05,1.28,1.28,0,0,1,0,.25,2.62,2.62,0,0,0-.06.3c-.06.41-.42.78-1.06,1.12a11,11,0,0,0-2.88,2.19l-.64.65.22-1.48c0-.21,0-.45.08-.74s.08-.52.11-.71.05-.3.05-.34v-.12c0-.12-.34,0-1,.31a8.22,8.22,0,0,1-1.23.43,3.78,3.78,0,0,1,.86-2.19,1.39,1.39,0,0,0,.53-1c.06-1.11,0-1.68-.31-1.69s-.39-.19-.63-.54-1.92-1.77-4.74-4.28-4.64-4.06-5.45-4.69a27.75,27.75,0,0,0-4.45-2.93c-.52-.23-.78-.39-.77-.47h.13a9.7,9.7,0,0,1,1.92.42,39.74,39.74,0,0,1,7.47,3.79l1.1.69-.7-.6a28.87,28.87,0,0,1-5.75-6.95,34.62,34.62,0,0,1-3.86-8.51,9.24,9.24,0,0,0-1.12-2.67,6.36,6.36,0,0,0-2-1.73,1.78,1.78,0,0,1-.32-.2l-.33-.21-.26-.14-.13-.06L195.67,323c0-.09.29-.11.87-.08a7.56,7.56,0,0,1,3.52,1.63,12.45,12.45,0,0,0,3.11,1.86,6.57,6.57,0,0,0,.72.14,2.48,2.48,0,0,0,.67,0c.18,0,.28-.06.28-.1,0-.54-.53-1.61-1.69-3.21-.21-.29-1.15-1.32-2.83-3.08a159.07,159.07,0,0,1-15.89-18.05c0-.25.48-.16,1.53.28a11,11,0,0,1,3.41,2.31c.3.26,2.11,2.39,5.45,6.39s5.09,6.09,5.26,6.27a3.62,3.62,0,0,0,2.27,1.31l.2,0a.87.87,0,0,1,.2,0,2.28,2.28,0,0,0,1-.53,1.34,1.34,0,0,0,.56-.93c0-.08,0-.21,0-.37l-.06-.13c0-.08,0-.08.13,0q.58.47.75,3.21a7.79,7.79,0,0,0,.62,3.26,4.13,4.13,0,0,0,2.19,1.43c1.84.65,2.73,1.38,2.68,2.2,0,.17.28.27.85.3s.89.16.92.37l.05.31c0,.21,0,.39,0,.56s0,.37-.08.74-.07.65-.08.86-.05.62-.09,1-.07.59-.08.68a2.41,2.41,0,0,0,.26,1.25q.3.65,6.3,9.12a37.53,37.53,0,0,0,2.81,3.45c1.22,1.35,1.94,2,2.16,2.05s-.09-.38-.54-1.15a19.74,19.74,0,0,1-2-3.78c0-.2.28-.56.8-1.07a2.77,2.77,0,0,0,1-2s0-1,0-2.91c0-.87.08-2.42.21-4.64.27-4.66.52-7,.74-7,0,0,.18,1.66.41,5s.46,6.65.69,10a46.74,46.74,0,0,0,.47,5.14c.09,0,.31-.29.66-.89a12.48,12.48,0,0,0,1.35-3.77l.24-.54.05.19a1.48,1.48,0,0,1,.11.38c0,.16.07.33.11.5a22.65,22.65,0,0,1,.19,3.61l0,2.6-.68,1.33a13.27,13.27,0,0,0-1.65,4.18l.06.07a4.56,4.56,0,0,0,1.93-.88l.69-.33a3.82,3.82,0,0,1-.56.93c-.41.61-.83,1.25-1.25,1.91a4.83,4.83,0,0,0-.63,1.17Z" transform="translate(-126.55 -251.36)"/><path class="cls-1" d="M389.05,352.63a5.28,5.28,0,0,0-.63-1.17c-.42-.66-.84-1.29-1.25-1.91s-.61-.93-.56-.93l.69.33a4.59,4.59,0,0,0,1.92.88l.07-.07a13.27,13.27,0,0,0-1.65-4.18l-.68-1.33,0-2.6a22.65,22.65,0,0,1,.19-3.61c0-.17.07-.34.11-.5a1.48,1.48,0,0,1,.11-.38l0-.19.24.54a12.48,12.48,0,0,0,1.35,3.77c.35.6.57.9.66.89a46.74,46.74,0,0,0,.47-5.14q.35-5,.69-10c.23-3.33.37-5,.41-5,.22,0,.47,2.31.74,7,.13,2.22.2,3.77.2,4.64,0,1.9,0,2.87,0,2.91a2.77,2.77,0,0,0,1,2c.52.51.78.87.79,1.08a19.05,19.05,0,0,1-2,3.77c-.45.77-.63,1.15-.54,1.15s.94-.7,2.16-2.05a37.53,37.53,0,0,0,2.81-3.45q6-8.48,6.29-9.12a2.32,2.32,0,0,0,.27-1.25c0-.09,0-.31-.08-.68s-.07-.7-.09-1,0-.49-.08-.86-.07-.62-.08-.74,0-.35,0-.56l.05-.31c0-.21.34-.33.91-.37s.87-.13.86-.29c-.05-.83.84-1.56,2.68-2.21a4.13,4.13,0,0,0,2.19-1.43,7.79,7.79,0,0,0,.62-3.26q.17-2.75.75-3.21c.08-.09.12-.09.13,0l-.06.13c0,.16,0,.29,0,.37a1.34,1.34,0,0,0,.56.93,2.28,2.28,0,0,0,1,.53.87.87,0,0,1,.2,0l.2,0a3.64,3.64,0,0,0,2.27-1.31q.25-.27,5.26-6.27c3.34-4,5.15-6.13,5.45-6.39a11,11,0,0,1,3.41-2.31c1.05-.44,1.56-.53,1.53-.28a159.07,159.07,0,0,1-15.89,18.05c-1.68,1.76-2.63,2.79-2.83,3.08-1.16,1.6-1.72,2.67-1.69,3.21,0,0,.09.07.28.1a2.41,2.41,0,0,0,.66,0,6.33,6.33,0,0,0,.73-.14,12.45,12.45,0,0,0,3.11-1.86,7.56,7.56,0,0,1,3.52-1.63c.58,0,.87,0,.87.08l-9.5,5.89-.13.06-.25.14-.33.21a2.21,2.21,0,0,1-.32.2,6.41,6.41,0,0,0-2,1.73A9.55,9.55,0,0,0,405.8,331a34.62,34.62,0,0,1-3.86,8.51,28.87,28.87,0,0,1-5.75,6.95l-.7.6,1.1-.69a39.44,39.44,0,0,1,7.47-3.79,9.7,9.7,0,0,1,1.92-.42h.13c0,.08-.25.24-.77.48a26.89,26.89,0,0,0-4.45,2.92q-1.22.94-5.45,4.69c-2.82,2.51-4.4,3.93-4.74,4.28s-.46.53-.64.54-.36.58-.3,1.69a1.36,1.36,0,0,0,.53,1,3.85,3.85,0,0,1,.86,2.19,7.85,7.85,0,0,1-1.23-.43c-.69-.33-1-.43-1-.31v.12s0,.16,0,.34.07.42.11.71.06.53.08.74l.22,1.48-.65-.65a10.75,10.75,0,0,0-2.87-2.19c-.64-.34-1-.71-1.07-1.12a1.33,1.33,0,0,0,0-.3c0-.13,0-.21-.05-.25a3.32,3.32,0,0,1,.56-2.05,2.87,2.87,0,0,1,1.66-1.24l.66-.23-.13-2.22.4,0,.82.2Z" transform="translate(-126.55 -251.36)"/><path class="cls-1" d="M247.44,352.18c.25,0,.34,0,.27,0a4.05,4.05,0,0,1-1.06.27,8.27,8.27,0,0,1-6-1.6s0,0-.07.09a1.94,1.94,0,0,0-.07.35c0,.14,0,.3-.05.48a5.65,5.65,0,0,1-1.12,3.07,10.5,10.5,0,0,1-1.21,1.3.51.51,0,0,1-.17.07l0,0c-.07,0-.06-.1,0-.33l.24-.71a7,7,0,0,0,.62-3.05,15.44,15.44,0,0,0-.65-3.07,10.1,10.1,0,0,0-1-2.52l-.32-.39c-.1-.13-.16-.18-.19-.17a6,6,0,0,0,.15,1.41,11.66,11.66,0,0,1,.23,1.86.89.89,0,0,1-.23.44.72.72,0,0,1-.66.09,1.34,1.34,0,0,1-.69-.47,2.89,2.89,0,0,1-.38-2c0-.27,0-1-.07-2.18a6.12,6.12,0,0,0-1-3.36,2.54,2.54,0,0,0-1.65-.89,1.78,1.78,0,0,1-1.07-.54,3.64,3.64,0,0,1-.43-2.33,3.11,3.11,0,0,0-.44-2.13,4.29,4.29,0,0,0-.86-.71q-.84-.53-4.29-2.21a40.19,40.19,0,0,1-3.63-1.92l0,0a2.29,2.29,0,0,1,1.12-.15,11.74,11.74,0,0,1,1.75.12,13,13,0,0,1,5.07,2,14,14,0,0,1,3.38,2.75.93.93,0,0,1,.19.81.76.76,0,0,0,.19.74,4.94,4.94,0,0,0,.91.92l.11-.66a3.22,3.22,0,0,0,.07-1.14l-.11-.49-.52-.28a1.15,1.15,0,0,1-.67-1.56,15.47,15.47,0,0,0,.23-2.62,2.22,2.22,0,0,0-.5-1.31,5.83,5.83,0,0,0-.88-.72,5.3,5.3,0,0,1-.91-.77l-.25-.31.62-.75a14,14,0,0,0,2.53-5.49,4.53,4.53,0,0,0,.23-2.22,5.84,5.84,0,0,0-.91-.92c-.38-.37-.59-.59-.63-.64a3,3,0,0,1-.43-1.82,7.34,7.34,0,0,0-.65-3.18,32,32,0,0,0-3.07-4.15q-2.61-3.24-2.47-3.36c.12-.09.38,0,.78.32a29.49,29.49,0,0,1,5.83,5.5l.47.58a4,4,0,0,1,.7,1.09,4.64,4.64,0,0,1,.05,1.42,5.82,5.82,0,0,0,1.21,3.87l.37.47.4-.52a16.91,16.91,0,0,1,2.37-2.16c.59-.48,1-.78,1.23-.93a9,9,0,0,1,4.16-1.45,3.36,3.36,0,0,1,.81.18c.34.11.51.2.5.29a8.61,8.61,0,0,1-1,.35,12.19,12.19,0,0,0-3.84,2l-.38.31a8.37,8.37,0,0,0-1.68,1.8,12.06,12.06,0,0,0-1.82,5.29,3.24,3.24,0,0,1-.9,2.26.75.75,0,0,0-.35.73,1.85,1.85,0,0,0,.37.66,2.2,2.2,0,0,0,2.18.91c.34-.06.55-.16.62-.31s.13-.15.18-.14a.88.88,0,0,1,0,.44,3.71,3.71,0,0,1-1.41,1.71,4.51,4.51,0,0,0-1.22,1.43l.44-.16a2.49,2.49,0,0,0,.76-.43,10.46,10.46,0,0,0,1.89-2.48,12.87,12.87,0,0,1,1.68-2.37.84.84,0,0,1,.65-.21l2.8,1.25c2.11.93,3.59,1.57,4.44,1.9l2,.78,0,0a5,5,0,0,1-2.23-.1,12.55,12.55,0,0,1-4.91-1.91c-1-.68-1.82-.82-2.31-.43a2.74,2.74,0,0,0-.73,1,18.36,18.36,0,0,0-.77,2.14,9.73,9.73,0,0,1-1.43,3.26,3.25,3.25,0,0,0-.79,2.11,6.18,6.18,0,0,0,.15,1.41,3.81,3.81,0,0,0,.3,1.09c0,.05.28,0,.72-.19a29.14,29.14,0,0,1,4-1.3,24.94,24.94,0,0,0,4.13-1.35l.83-.42-.71.7-.27.25a3.74,3.74,0,0,1-.33.3,13.76,13.76,0,0,1-2.79,1.8c-.11.05-.75.25-1.9.59a6.19,6.19,0,0,0-2.17.91,1.54,1.54,0,0,0-.54.76,4.49,4.49,0,0,0,.7,3.46c.42.8.73,1.46.95,2a5.24,5.24,0,0,0,.6,1.1q.26.32,1.8,1.77t2,1.83A3.92,3.92,0,0,0,247.44,352.18Z" transform="translate(-126.55 -251.36)"/><path class="cls-1" d="M386.16,349.83c.32-.26,1-.87,2-1.84s1.64-1.56,1.81-1.77a5.75,5.75,0,0,0,.6-1.1c.21-.51.53-1.17.95-2a4.54,4.54,0,0,0,.7-3.46,1.56,1.56,0,0,0-.55-.76,6,6,0,0,0-2.16-.91c-1.16-.34-1.79-.54-1.91-.59a13.16,13.16,0,0,1-2.78-1.8,3.74,3.74,0,0,1-.33-.3l-.27-.25-.71-.7.83.42a25.08,25.08,0,0,0,4.12,1.35,28.92,28.92,0,0,1,4.06,1.3c.44.18.67.25.72.19a3.7,3.7,0,0,0,.3-1.09,6.18,6.18,0,0,0,.15-1.41,3.26,3.26,0,0,0-.79-2.1,10.12,10.12,0,0,1-1.44-3.26,17,17,0,0,0-.76-2.15,2.74,2.74,0,0,0-.73-1c-.49-.39-1.26-.25-2.31.43a12.61,12.61,0,0,1-4.91,1.91,5.22,5.22,0,0,1-2.23.11l0,0,2-.78c.85-.33,2.33-1,4.44-1.9l2.8-1.25a.84.84,0,0,1,.65.21,13.12,13.12,0,0,1,1.68,2.38,10.12,10.12,0,0,0,1.88,2.47,2.66,2.66,0,0,0,.77.43l.44.16a4.75,4.75,0,0,0-1.22-1.43,3.64,3.64,0,0,1-1.41-1.71.89.89,0,0,1,0-.44s.1,0,.18.14.28.25.62.31a2.2,2.2,0,0,0,2.18-.91,1.67,1.67,0,0,0,.36-.66.73.73,0,0,0-.34-.73,3.22,3.22,0,0,1-.9-2.26,12.19,12.19,0,0,0-1.82-5.29,8.61,8.61,0,0,0-1.68-1.8l-.39-.31a12.55,12.55,0,0,0-3.83-2,8.81,8.81,0,0,1-1.06-.34c0-.09.16-.19.5-.3a3.36,3.36,0,0,1,.81-.18,9,9,0,0,1,4.17,1.45q.35.23,1.23.93a16.16,16.16,0,0,1,2.37,2.17l.39.51.38-.46a5.84,5.84,0,0,0,1.21-3.87,4.39,4.39,0,0,1,.05-1.43,4,4,0,0,1,.7-1.09l.47-.58a28.89,28.89,0,0,1,5.83-5.49c.4-.32.66-.42.78-.33s-.73,1.2-2.48,3.36a32.21,32.21,0,0,0-3.06,4.15,7.2,7.2,0,0,0-.65,3.18,3,3,0,0,1-.43,1.82c0,.05-.25.27-.63.64a5.84,5.84,0,0,0-.91.92,4.57,4.57,0,0,0,.23,2.23,13.91,13.91,0,0,0,2.53,5.48l.61.75-.24.31a5.3,5.3,0,0,1-.91.77,5.17,5.17,0,0,0-.88.73,2.25,2.25,0,0,0-.51,1.31,16.93,16.93,0,0,0,.24,2.61,1.44,1.44,0,0,1-.13,1.17,1.42,1.42,0,0,1-.54.39l-.52.28-.11.49a3.22,3.22,0,0,0,.07,1.14l.11.66a5.27,5.27,0,0,0,.91-.92.75.75,0,0,0,.19-.74.94.94,0,0,1,.19-.81,14,14,0,0,1,3.38-2.75,13.11,13.11,0,0,1,5.06-2,11.83,11.83,0,0,1,1.75-.12,2.34,2.34,0,0,1,1.13.15l0,0c-.09.1-1.3.74-3.64,1.91s-3.72,1.86-4.28,2.22a4.33,4.33,0,0,0-.86.7,3.11,3.11,0,0,0-.44,2.13,3.71,3.71,0,0,1-.43,2.33,1.78,1.78,0,0,1-1.07.54,2.55,2.55,0,0,0-1.66.9,6.1,6.1,0,0,0-1,3.36c-.06,1.18-.09,1.9-.07,2.17a3,3,0,0,1-.38,2,1.33,1.33,0,0,1-.7.47.71.71,0,0,1-.65-.09.78.78,0,0,1-.23-.44,12.58,12.58,0,0,1,.22-1.86,4.87,4.87,0,0,0,.15-1.4s-.08,0-.19.16l-.31.39a9.37,9.37,0,0,0-1,2.52,15.44,15.44,0,0,0-.65,3.07,7.13,7.13,0,0,0,.61,3.05l.25.71c.08.23.08.34,0,.33l0,0a.33.33,0,0,1-.17-.07,10.38,10.38,0,0,1-1.22-1.3,5.63,5.63,0,0,1-1.11-3.07c0-.18,0-.34-.05-.48a1.94,1.94,0,0,0-.07-.35c0-.08-.05-.11-.07-.09a8.23,8.23,0,0,1-6,1.6,3.66,3.66,0,0,1-1.06-.27c-.07-.06,0-.07.27,0A4,4,0,0,0,386.16,349.83Z" transform="translate(-126.55 -251.36)"/><path class="cls-1" d="M249.78,326.94l.39-1.31a.2.2,0,0,0-.16-.06q-.48,0-.87-1.17a5.49,5.49,0,0,1-.14-1.6,3,3,0,0,0-.52-2.12,7.53,7.53,0,0,0-2.67-1.56,6.65,6.65,0,0,1-2.22-1.34,1.39,1.39,0,0,1-.2-.26l.05,0a.68.68,0,0,1,.27.16.83.83,0,0,0,.48.18,1.61,1.61,0,0,0,1.13-.43,1.49,1.49,0,0,0,.57-1.08,2.33,2.33,0,0,0-.84-1.78,11.48,11.48,0,0,1-2.72-4.44,25.53,25.53,0,0,0-1.75-3.31c-1.51-2.43-2.35-3.83-2.51-4.22a9.39,9.39,0,0,1-.87-3.42l1,.05,1.11,1.69a105.71,105.71,0,0,1,6.87,12l1,1.94,2.35,2,2.45,2c-.12-.48-.25-1-.41-1.61a8.89,8.89,0,0,1-.47-2.63,3,3,0,0,1,.09-.72c.13-.43.23-.65.3-.65s.42,1.07.83,3.17c1,5,1.62,7.76,1.78,8.18a8.22,8.22,0,0,0,2.65,2.59,32.12,32.12,0,0,1,4.79,4.27c.18.18.36.38.55.59a2.37,2.37,0,0,0,.44.43l.1.11a2.65,2.65,0,0,0-.19-.47,7,7,0,0,1-.6-3.41,38.63,38.63,0,0,1,.74-5.43c.43-2.21.78-3.44,1-3.66,0-.07.07-.07.08,0a.26.26,0,0,1,0,.21,29.84,29.84,0,0,0-.73,5c0,.18,0,.42-.06.75s-.06.55-.06.68a12.26,12.26,0,0,0,.39,4.28c.07.24.35,1,.85,2.17s1,2.34,1.44,3.42l.74,1.62c-.09-.48-.17-1-.25-1.54a20.89,20.89,0,0,1-.34-4.28c0-.1,0-.23,0-.4s0-.29,0-.36a3.13,3.13,0,0,1,.2-.86c.07,0,.13.28.18.83a18.45,18.45,0,0,0,1.1,4.2c.36.91,1.11,2.75,2.27,5.54s1.81,4.36,2,4.71a1.6,1.6,0,0,1,.1.23.76.76,0,0,1,.05.21.26.26,0,0,0,0,.15.31.31,0,0,0,.07.14.18.18,0,0,0,.11.05.58.58,0,0,1,.37.17,1.67,1.67,0,0,0,1.33.53,1.14,1.14,0,0,0,.77-.17,2.44,2.44,0,0,1,.87-.06c.65,0,1,.09,1,.2a4.05,4.05,0,0,1-.57.61c-.38.38-.58.61-.58.72s0,.1.05.1a1,1,0,0,1,.24.06c.13,0,.32.1.59.16l.67.16a4.73,4.73,0,0,1,1.07.41,13,13,0,0,0-2.94,1.35,3,3,0,0,1-1.5.64c-.32,0-.49.05-.5.19s-.21.36-.39.28a3.56,3.56,0,0,1-.79-.55,15.59,15.59,0,0,0-4.92-2.79c-2.06-.82-3.08-1.34-3.07-1.58,0-.07.36-.05,1.08.05l1.08.1a11.56,11.56,0,0,0-1.42-.88c-.35-.19-.53-.32-.53-.39a2.5,2.5,0,0,1,.35-.39c.23-.23.34-.36.34-.4-.18,0-.68,0-1.52.09l-1.09.05a2,2,0,0,1-.62-.11,5.11,5.11,0,0,1-.58-.26,5.7,5.7,0,0,0-.72-.29,12.17,12.17,0,0,1-3.3-1.38,3.21,3.21,0,0,1-.95-.71s.06,0,.27,0a17.43,17.43,0,0,0,2.38.32,11.28,11.28,0,0,0,2.17-.11c.26,0,.3-.14.12-.25q-1.95-1.06-12.22-5.6a38.84,38.84,0,0,1-4.15-1.88h.06c.25,0,1.45.31,3.59.89a72.93,72.93,0,0,1,8.5,2.91,3.76,3.76,0,0,0,1.18.31,2.66,2.66,0,0,0,1.21-.25,1.47,1.47,0,0,1,1.57,0l2.95,3.16s-.07-.33-.31-.91a4.61,4.61,0,0,0-.58-1.08,20.87,20.87,0,0,0-2-1.52,34.9,34.9,0,0,1-3.29-2.67,7.46,7.46,0,0,1-1.53-2.12c-.2-.42-.55-1.35-1.06-2.77a18.55,18.55,0,0,1-.76-2.29,8.53,8.53,0,0,0-2-.69A6,6,0,0,1,249.78,326.94Zm.6-7a8.75,8.75,0,0,0,1.05,1,.33.33,0,0,0,.44-.13,1.19,1.19,0,0,0,.19-.61,9.49,9.49,0,0,0-1.77-1.62,11.84,11.84,0,0,0-1.89-1.42s.06.18.3.55.52.78.86,1.24S250.18,319.73,250.38,320ZM258,334.76a21.59,21.59,0,0,0,2.82,2.44q-6-8.18-6.07-8.23c-.14-.14-.21-.2-.21-.17a5.16,5.16,0,0,0,.24.68A16.08,16.08,0,0,0,258,334.76Zm9,6.17c0-.07,0-.08-.05,0s-.05.09,0,.13S267,341,267,340.93Z" transform="translate(-126.55 -251.36)"/><path class="cls-1" d="M384.48,331.37a8.41,8.41,0,0,0-2,.68,22,22,0,0,1-.76,2.29c-.51,1.43-.87,2.35-1.07,2.77a7.19,7.19,0,0,1-1.53,2.12,30.86,30.86,0,0,1-3.29,2.67,21.66,21.66,0,0,0-2,1.53,4.2,4.2,0,0,0-.58,1.08c-.24.57-.34.88-.3.91l2.94-3.16a1.46,1.46,0,0,1,1.58,0,2.63,2.63,0,0,0,1.2.26,3.55,3.55,0,0,0,1.18-.32,75.53,75.53,0,0,1,8.5-2.91c2.14-.58,3.34-.87,3.6-.89H392a39.94,39.94,0,0,1-4.15,1.89q-10.26,4.53-12.22,5.6c-.18.11-.14.19.12.25a12.25,12.25,0,0,0,2.18.1,14.66,14.66,0,0,0,2.37-.32c.22,0,.31-.05.27,0s-.34.34-.94.71a12.81,12.81,0,0,1-3.3,1.39,4.51,4.51,0,0,0-.72.29c-.23.11-.43.2-.59.26a2.35,2.35,0,0,1-.62.1c-.07,0-.43,0-1.08-.05-.84-.06-1.35-.09-1.53-.08a2.13,2.13,0,0,0,.34.39c.23.23.35.36.35.4s-.17.19-.53.38a11.64,11.64,0,0,0-1.42.89l1.08-.11c.72-.1,1.08-.11,1.08-.05,0,.24-1,.77-3.07,1.58a16,16,0,0,0-4.92,2.8,4,4,0,0,1-.79.55c-.17.08-.31,0-.39-.29s-.17-.2-.5-.18a3,3,0,0,1-1.49-.65,13.92,13.92,0,0,0-2.94-1.35,5.12,5.12,0,0,1,1.06-.41l.67-.15.59-.16.24-.06s.06,0,.05-.11-.2-.34-.57-.71a5.1,5.1,0,0,1-.58-.62c0-.1.32-.17,1-.2a2.38,2.38,0,0,1,.87.06,1.09,1.09,0,0,0,.77.17,1.65,1.65,0,0,0,1.33-.52.52.52,0,0,1,.38-.17.14.14,0,0,0,.1-.06.29.29,0,0,0,.08-.13.78.78,0,0,0,0-.16.58.58,0,0,1,0-.2c0-.09.07-.17.1-.24q.24-.53,2-4.7T369,339a18.72,18.72,0,0,0,1.11-4.21c0-.55.1-.82.17-.83a2.63,2.63,0,0,1,.21.86,2.23,2.23,0,0,0,0,.36c0,.17,0,.31.05.41a22.32,22.32,0,0,1-.34,4.27c-.09.55-.17,1.07-.26,1.55l.74-1.62,1.44-3.43a23.26,23.26,0,0,0,.85-2.17,12,12,0,0,0,.39-4.27,6.34,6.34,0,0,0-.06-.69c0-.32-.05-.57-.06-.74a29.13,29.13,0,0,0-.73-5,.28.28,0,0,1,0-.2c0-.07,0-.07.08,0,.26.23.61,1.45,1,3.67a40.56,40.56,0,0,1,.75,5.42,7.17,7.17,0,0,1-.6,3.42,2.51,2.51,0,0,0-.2.47l.11-.11a3.26,3.26,0,0,0,.44-.43c.19-.22.37-.41.54-.59a32.69,32.69,0,0,1,4.79-4.28,8.12,8.12,0,0,0,2.65-2.58q.24-.63,1.79-8.19c.4-2.1.68-3.15.82-3.16s.18.21.31.65a4.64,4.64,0,0,1,.09.71,9.45,9.45,0,0,1-.48,2.64c-.15.59-.29,1.12-.41,1.61l2.46-2,2.35-2,1-1.94a106.36,106.36,0,0,1,6.87-12l1.12-1.7,1,0a9.92,9.92,0,0,1-.87,3.42c-.17.38-1,1.79-2.52,4.22a24.69,24.69,0,0,0-1.74,3.31,11.75,11.75,0,0,1-2.72,4.43,2.35,2.35,0,0,0-.84,1.79,1.46,1.46,0,0,0,.56,1.07,1.59,1.59,0,0,0,1.14.43.76.76,0,0,0,.48-.17c.14-.11.22-.17.26-.17l.06,0a1.68,1.68,0,0,1-.21.27,6.7,6.7,0,0,1-2.21,1.33,7.64,7.64,0,0,0-2.67,1.56,3,3,0,0,0-.53,2.13,5.39,5.39,0,0,1-.14,1.59q-.37,1.16-.87,1.17a.34.34,0,0,0-.16.06l.39,1.32A6.14,6.14,0,0,1,384.48,331.37Zm-15.17,13.35s0-.08,0-.13-.06,0-.05,0S369.28,344.76,369.31,344.72Zm12.17-11.54a3.84,3.84,0,0,0,.23-.68s-.07,0-.21.16l-6.07,8.24a20.13,20.13,0,0,0,2.82-2.44A16.25,16.25,0,0,0,381.48,333.18Zm5.2-10.55c.34-.46.63-.88.86-1.25s.34-.55.3-.55a13.61,13.61,0,0,0-1.88,1.42,8.94,8.94,0,0,0-1.77,1.63,1.07,1.07,0,0,0,.19.6.32.32,0,0,0,.44.13,8.07,8.07,0,0,0,1-1A9.72,9.72,0,0,0,386.68,322.63Z" transform="translate(-126.55 -251.36)"/><path class="cls-1" d="M306.07,321.9a2.9,2.9,0,0,1-1.14-.35,3.18,3.18,0,0,0-1.25-.34,3.72,3.72,0,0,1-1.55-.44,6.7,6.7,0,0,0-1-.44l.73.88.62,1c-1-.06-2-.16-3.22-.29q-3-.3-5.49-.3-6.23,0-9.75,1.76c-.7.33-1,.43-.94.29l1.66-1.17,2-1.17-1.14-.2a30.6,30.6,0,0,0-3.11-.19,35,35,0,0,0-9.85,1.27,5.94,5.94,0,0,1-1.66.39l.2-.1a1.86,1.86,0,0,1,.68-.34c.31-.1.67-.23,1.09-.39s.88-.33,1.4-.49,1-.31,1.55-.44a16.22,16.22,0,0,0,1.61-.49,33,33,0,0,1,6.64-1.27,7.49,7.49,0,0,1,3.21.78c1.18.46,1.87.72,2.08.79h.1q1.14,0,6.23-.59c3.38-.39,5.11-.62,5.18-.68l-1.86-.88q-2-.89-2-1.08a.34.34,0,0,1,.21-.1,20.25,20.25,0,0,1,3.22.79,12.32,12.32,0,0,0,2.7.48,2.57,2.57,0,0,0,1.55-.39c1.31-.78,2.25-3,2.8-6.74q.72-3.7.73-25.2c0-3.26,0-5.05-.11-5.38s-.69-2.54-1.86-6.25a39,39,0,0,1-1.77-6.55l.11-.29h.2l3.95,9.67c.06.07.17,0,.31-.29l.2-.39a4.92,4.92,0,0,0-.1-2.64,16.2,16.2,0,0,1-.31-2.54,8.14,8.14,0,0,1,.73-3,10.14,10.14,0,0,0,.93-3.71q0-1.95-2.07-6.94a16.92,16.92,0,0,1-1.67-6,.71.71,0,0,1,.11-.48c.07-.07.27-.1.62-.1a2,2,0,0,1,1.35.78,18,18,0,0,1,3.11,6.45,17,17,0,0,1,.52,4.39,34.62,34.62,0,0,1-.42,4.6,39.62,39.62,0,0,0-.51,6.74,5.2,5.2,0,0,0,.1,1.56c.07.07.48-.08,1.25-.44a13.37,13.37,0,0,0,1.24-.63c-.07.58-.17,1.2-.31,1.85a45.51,45.51,0,0,0-.42,6.74,47.13,47.13,0,0,0,.42,6.94c.07.26.14.59.21,1a9,9,0,0,0,.2,1,2.6,2.6,0,0,1,.11.59c0,.13,0,.2-.11.2s-.59-.49-1.14-1.47l-1-1.47a27.72,27.72,0,0,0-.31,5.18,31.56,31.56,0,0,0,1.77,11.14,14.1,14.1,0,0,0,.46,1.47c.18.45.3.76.37.92a1.05,1.05,0,0,1,.1.35q0,.09-.21.09a2.62,2.62,0,0,1-1-.24,3.54,3.54,0,0,0-.68-.25c-.07,0-.1.1-.1.3a9.57,9.57,0,0,0,.31,1.56,7.66,7.66,0,0,0,6.43,5.76l1.25.2-1.51.29-1.5.3,1,.29q3,.88,15.55,1.86l4.67.39,3.79.29,1.4.1h.1q0,.28-14.42.49-9.33.19-10.47.39l-.57.19a1.18,1.18,0,0,0-.47.34,1.32,1.32,0,0,0-.26.44c0,.14-.09.35-.15.64a3.21,3.21,0,0,0-.11.68,7,7,0,0,1-.1.93,7.89,7.89,0,0,0-.1,1.17l-.42,3.52-.21-.39v-.2a18.67,18.67,0,0,0-1-4.69l-.42-1.46a11.28,11.28,0,0,0-.41,2.93c0,1.63-.49,2.44-1.46,2.44a.73.73,0,0,1-.26-.05,1,1,0,0,0-.25-.05h-.11c-.21,0-.31.07-.31.2a3.85,3.85,0,0,0,.31,1,3.55,3.55,0,0,1,.31,1.07.64.64,0,0,1-.15.39.6.6,0,0,0-.16.39c0,.33,0,.92.11,1.76s.13,1.63.2,2.35.11,1.1.11,1.17c-.28-.26-.59-.59-.94-1-.69-.91-1.24-1.17-1.66-.78-.14.13-.2.46-.2,1a31.3,31.3,0,0,0,.41,4.1l.41,3.13a8.77,8.77,0,0,1-.62-.69c-.2-.26-.34-.39-.41-.39v.2c0,.45.14,1.72.41,3.81q.11.78.21,1.71a13.36,13.36,0,0,1,.1,1.41l.11.49c0,.2-.21.3-.62.3s-.87-.33-1.15-1a20.08,20.08,0,0,1-1.45-8.31,33.56,33.56,0,0,1,.73-7.71q.1-.3,0-.3t-.93.69c-1.53,1.43-2.81,2.15-3.84,2.15-.28,0,0-.39.83-1.18A9.24,9.24,0,0,0,307.31,323,1.53,1.53,0,0,0,306.07,321.9Zm3.42-4.3a5.1,5.1,0,0,1,.21-1.27,5,5,0,0,0,.21-1.17c0-.26-.07-.4-.21-.4s-.21.2-.21.59-.55,1.07-1.66,2l-1.55,1.47,1.24-.1a3.53,3.53,0,0,0,1.56-.2A1.35,1.35,0,0,0,309.49,317.6Zm.73,4.1a3.84,3.84,0,0,1-.11-1,3.8,3.8,0,0,0-.1-1h-2.59c0,.06.17.19.52.39l1,.58a5.82,5.82,0,0,1,.63.39ZM310,340.75c.07,0,.1,0,.1-.1s0-.09-.1-.09-.1,0-.1.09S309.94,340.75,310,340.75Zm5.6-22c0-.06-.62-.86-1.86-2.39s-1.91-2.33-2-2.4l.11,1.08v.29a17.24,17.24,0,0,1,.1,2.15c0,.91.73,1.37,2.18,1.37C315.13,318.87,315.61,318.84,315.61,318.77Zm-1.14,1.17h-.83a1,1,0,0,0-.83.3c-.21.39-.17.58.11.58A2.51,2.51,0,0,0,314.47,319.94Z" transform="translate(-126.55 -251.36)"/><path class="cls-1" d="M350.52,308.89l.07-.08a1.67,1.67,0,0,1,0,.81q-.57,3.88-5.85,10.34a34.52,34.52,0,0,0-3.83,6.48c-1.15,2.57-1.67,3.91-1.55,4s.7-.34,1.75-1.37c.36-.35.8-.83,1.31-1.43.1-.1.85-1.11,2.24-3a32.86,32.86,0,0,1,2.92-3.64l1.31-1.35a25.93,25.93,0,0,1-1.67,4.84,27.15,27.15,0,0,1-5.42,8.39,4,4,0,0,1-.57.49,8.69,8.69,0,0,1-3.32,1.39,9.59,9.59,0,0,0-3.06,1.12q-.19.18-.12.33a2,2,0,0,0,.39.94,6.9,6.9,0,0,1,.66,1.44,2.76,2.76,0,0,1,.12.93,11.05,11.05,0,0,1-.43,1.6c-.29.93-.28,1.55,0,1.86.07.07.33,0,.78-.35a9.22,9.22,0,0,1,3.1-1.31c1.4-.21,2.19-.24,2.35-.07l-.08.08a1.54,1.54,0,0,1-.24.17l-.36.21a15.84,15.84,0,0,0-4.28,3,16.77,16.77,0,0,0-3.14,4.19,18.53,18.53,0,0,0-.86,2,5.65,5.65,0,0,0-.44,1.47,2.32,2.32,0,0,1-.1.66,9,9,0,0,0-.17,1.14,4.32,4.32,0,0,1-1,2.41,1.61,1.61,0,0,1-.38.3c-.25.16-.39.22-.41.2a5.31,5.31,0,0,1,.33-1.51,11.64,11.64,0,0,0,.3-1.23c0-.31.1-.65.14-1s.1-.75.16-1.14a30.38,30.38,0,0,0-1.31-15,18.55,18.55,0,0,0-2.48-4.46c-1.46-2-2.07-3-1.83-3l7.42,5.32a2.73,2.73,0,0,0,.37-.78,6.3,6.3,0,0,0,.38-1.84,6.16,6.16,0,0,0-.12-2,26.87,26.87,0,0,0-2.61-5.72,36,36,0,0,1-1.9-3.71,4.91,4.91,0,0,1-.36-1.74c-.06-.73-.09-2.2-.09-4.4a22.11,22.11,0,0,1,.11-3.42l.07.07a5.06,5.06,0,0,1,.93,2,17.54,17.54,0,0,1,.47,3.09,19.21,19.21,0,0,0,.64,4.11,3.75,3.75,0,0,0,1,1.39,3.85,3.85,0,0,0,1.41,1,2.93,2.93,0,0,0,3.11-.68,9.72,9.72,0,0,0,2.08-4.49,22.15,22.15,0,0,0,.77-7.06,19.44,19.44,0,0,0-1.74-6.54,37.53,37.53,0,0,0-5.29-8.53,4.45,4.45,0,0,1-.73-1.09.57.57,0,0,1,.23-.57.54.54,0,0,1,.73-.1,4.46,4.46,0,0,1,.85.7,32.05,32.05,0,0,1,4.46,5.93,34.09,34.09,0,0,1,2.86,6.17,23.55,23.55,0,0,1,1.38,5.68,20.1,20.1,0,0,1-.29,3.08c-.23,1.56-.45,3-.66,4.33s-.3,2-.28,2,.68-.87,2-2.69,2.05-2.94,2.29-3.37a7.13,7.13,0,0,0,1-5,6.34,6.34,0,0,1-.1-1.29c0-.43.06-.69.17-.79s.14,0,.28.13a6,6,0,0,1,1.05,1.69,3.4,3.4,0,0,1,.34,1.34c0,.39.08.54.16.47a15.16,15.16,0,0,0,1.31-1.71A20.56,20.56,0,0,0,350.52,308.89Z" transform="translate(-126.55 -251.36)"/><path class="cls-1" d="M354,365.38a15.15,15.15,0,0,0,2,1.17c.11,0,.1-.15,0-.57a3.72,3.72,0,0,1-.2-1.55,7.38,7.38,0,0,1,.39-2.25c.08-.21.16-.31.23-.28s.31.31.49.75a7,7,0,0,1,.41,1.39,7.79,7.79,0,0,0,3,4.71c.42.32,1.64,1.14,3.67,2.43s3,1.93,3.07,1.89-.35-.69-1.1-2-1.54-2.68-2.4-4.21a24.32,24.32,0,0,1-1.54-3.07,27.65,27.65,0,0,1-.87-6.57,39.93,39.93,0,0,1,.41-7.77,38.86,38.86,0,0,1,2.14-8.27,5.83,5.83,0,0,1,.57-1.13.6.6,0,0,1,.79-.24c.29.11.44.28.46.49a5.62,5.62,0,0,1-.3,1.48,45.68,45.68,0,0,0-1.93,11.36,22.8,22.8,0,0,0,.86,7.64,24.37,24.37,0,0,0,3.61,7q2.13,3,3.92,3.7a3.14,3.14,0,0,0,3.42-.74,6,6,0,0,0,1.48-3.6,22,22,0,0,0-1-4.58,19.33,19.33,0,0,1-.77-3.44,6.06,6.06,0,0,1,.13-2.54l0-.11a22.76,22.76,0,0,1,1.49,3.52c.88,2.29,1.44,3.84,1.67,4.63a5.5,5.5,0,0,1,.34,2,41.3,41.3,0,0,1-.44,4.75,32.21,32.21,0,0,0-.33,7.19,7.88,7.88,0,0,0,1.79,3.85,3.14,3.14,0,0,0,.68.64l5.38-9c.25-.1,0,1.23-.64,4a22.91,22.91,0,0,0-.73,5.8,34.76,34.76,0,0,0,4.7,16.27c.23.37.44.74.63,1.1s.37.69.55,1a13.73,13.73,0,0,0,.79,1.15,6.53,6.53,0,0,1,1,1.41s-.18,0-.5,0a1.51,1.51,0,0,1-.51-.14,4.49,4.49,0,0,1-1.94-2.05,9.06,9.06,0,0,0-.62-1.11,2.51,2.51,0,0,1-.37-.64,6.12,6.12,0,0,0-1-1.34,17.7,17.7,0,0,0-1.67-1.64,16.46,16.46,0,0,0-4.85-2.9,16,16,0,0,0-5.55-1.15l-.45,0a1.42,1.42,0,0,1-.32-.07l-.11,0c.1-.25.9-.59,2.41-1a9.37,9.37,0,0,1,3.66-.09c.58.11.9.11.94,0,.18-.46-.06-1.11-.73-1.95a11.9,11.9,0,0,1-1.08-1.47,3.17,3.17,0,0,1-.25-1,8.71,8.71,0,0,1,.09-1.81,2.34,2.34,0,0,0,0-1.16c0-.12-.08-.21-.26-.29a10.44,10.44,0,0,0-3.54.27,9.07,9.07,0,0,1-3.92.11,3.42,3.42,0,0,1-.78-.25,32.41,32.41,0,0,1-12.5-10.47l1.87.8a33.2,33.2,0,0,1,4.43,2.42c2.17,1.35,3.33,2.06,3.48,2.11.76.39,1.4.68,1.9.88,1.48.58,2.25.79,2.32.61s-1-1.34-3.19-3.48a35.65,35.65,0,0,0-6.48-5q-8-4.24-10.08-8a2,2,0,0,1-.29-.85l.11.05A20.74,20.74,0,0,0,354,365.38Z" transform="translate(-126.55 -251.36)"/><path class="cls-1" d="M269.89,313.93a14.61,14.61,0,0,0,1.43,1.61q.12.1.12-.48a3.54,3.54,0,0,1,.24-1.37,5.91,5.91,0,0,1,.94-1.75c.12-.15.22-.2.27-.15s.18.35.22.77a6.28,6.28,0,0,1,0,1.3,7.16,7.16,0,0,0,1.36,4.88c.27.41,1.1,1.47,2.51,3.2s2.12,2.57,2.14,2.55a15.29,15.29,0,0,0-.42-2c-.3-1.3-.62-2.73-.95-4.27a21.28,21.28,0,0,1-.51-3.05,23.63,23.63,0,0,1,1-5.76,34.48,34.48,0,0,1,2.43-6.36,31.4,31.4,0,0,1,4-6.22,4.25,4.25,0,0,1,.79-.77.55.55,0,0,1,.74.05c.22.19.31.37.27.56a4.76,4.76,0,0,1-.66,1.14,37.25,37.25,0,0,0-4.67,8.87,19.37,19.37,0,0,0-1.29,6.65,22.23,22.23,0,0,0,1.26,7,9.71,9.71,0,0,0,2.39,4.33,2.91,2.91,0,0,0,3.15.46A3.68,3.68,0,0,0,288,324a3.8,3.8,0,0,0,.89-1.46,19.06,19.06,0,0,0,.35-4.14,16,16,0,0,1,.26-3.12,5.15,5.15,0,0,1,.78-2.08l.06-.07a20.56,20.56,0,0,1,.35,3.4c.16,2.2.23,3.67.22,4.4a4.81,4.81,0,0,1-.24,1.76,36.21,36.21,0,0,1-1.63,3.83,26.89,26.89,0,0,0-2.21,5.89,6,6,0,0,0,0,2,5.89,5.89,0,0,0,.51,1.8,3.28,3.28,0,0,0,.42.76l7-5.83c.24,0-.3,1-1.61,3.13a19,19,0,0,0-2.18,4.62,30.53,30.53,0,0,0-.26,15.07c.1.38.18.76.25,1.12s.13.69.21,1a12.52,12.52,0,0,0,.38,1.21,6.19,6.19,0,0,1,.44,1.48s-.17,0-.43-.17a1.64,1.64,0,0,1-.4-.28,4.22,4.22,0,0,1-1.12-2.33,10.93,10.93,0,0,0-.25-1.12,2.41,2.41,0,0,1-.15-.65,5.85,5.85,0,0,0-.54-1.45,15.6,15.6,0,0,0-1-1.89,16.67,16.67,0,0,0-7.89-6.69l-.38-.18a1.21,1.21,0,0,1-.25-.16l-.09-.07c.15-.17.94-.2,2.35-.09a9.32,9.32,0,0,1,3.18,1.09q.71.4.81.3c.28-.33.24-1-.11-1.86a9.57,9.57,0,0,1-.54-1.57,2.78,2.78,0,0,1,0-.93,7.75,7.75,0,0,1,.56-1.49,2,2,0,0,0,.33-1c0-.1,0-.21-.15-.32a9.62,9.62,0,0,0-3.12-.91,8.61,8.61,0,0,1-3.42-1.15,4.71,4.71,0,0,1-.6-.45,27.16,27.16,0,0,1-6-8,26,26,0,0,1-2-4.71l1.4,1.27a32.63,32.63,0,0,1,3.17,3.42c1.51,1.82,2.33,2.77,2.44,2.87a19.11,19.11,0,0,0,1.41,1.33c1.12,1,1.73,1.37,1.84,1.25s-.5-1.43-1.83-3.92a35.19,35.19,0,0,0-4.27-6.19q-5.73-6.07-6.55-9.91a1.6,1.6,0,0,1,0-.81l.08.07A19.41,19.41,0,0,0,269.89,313.93Z" transform="translate(-126.55 -251.36)"/><path class="cls-1" d="M205.86,418.78a8.19,8.19,0,0,0,2-.22,19.31,19.31,0,0,1,1.19-2c.77-1.22,1.29-2,1.56-2.35a7,7,0,0,1,1.86-1.66,32.33,32.33,0,0,1,3.62-1.8,18.63,18.63,0,0,0,2.17-1,4,4,0,0,0,.76-.88c.34-.49.5-.75.47-.79l-3.39,2.34a1.44,1.44,0,0,1-1.47-.35,2.52,2.52,0,0,0-1.07-.49,3.7,3.7,0,0,0-1.17.05,72.12,72.12,0,0,1-8.52,1c-2.12.1-3.3.12-3.53.08h0a38.16,38.16,0,0,1,4.25-.9q10.5-2.08,12.55-2.68c.19-.07.17-.15-.06-.26a10.31,10.31,0,0,0-2-.54,15.35,15.35,0,0,0-2.28-.2c-.21,0-.29,0-.25,0a2.9,2.9,0,0,1,1-.47,12,12,0,0,1,3.37-.61,4.45,4.45,0,0,0,.73-.12,4.86,4.86,0,0,1,.6-.12,2.14,2.14,0,0,1,.6,0l1,.27q1.16.35,1.41.39A2.15,2.15,0,0,0,221,405a2.29,2.29,0,0,1-.24-.44c0-.06.21-.15.57-.25a11.25,11.25,0,0,0,1.51-.53l-1-.13c-.69-.05-1-.11-1-.17,0-.23,1.11-.51,3.2-.84a15.17,15.17,0,0,0,5.16-1.58,3.21,3.21,0,0,1,.85-.35c.18,0,.28.08.3.35s.12.22.43.27a2.74,2.74,0,0,1,1.26.91,13,13,0,0,0,2.47,1.86,5.77,5.77,0,0,1-1.08.16h-.66l-.58,0a1.1,1.1,0,0,1-.24,0s-.06,0-.07.09a2.17,2.17,0,0,0,.39.78,3.78,3.78,0,0,1,.41.69c0,.1-.33.09-.94,0a2.16,2.16,0,0,1-.8-.24,1.09,1.09,0,0,0-.69-.32,1.62,1.62,0,0,0-1.35.22.5.5,0,0,1-.38.08.13.13,0,0,0-.11,0,.36.36,0,0,0-.1.11.58.58,0,0,0-.05.14.34.34,0,0,1-.08.18c-.05.07-.09.14-.14.2q-.33.43-2.81,4t-3.25,4.68a17.27,17.27,0,0,0-1.9,3.68c-.15.5-.26.74-.33.73a2.36,2.36,0,0,1,0-.84c0-.07,0-.18,0-.34a3,3,0,0,1,0-.39,20.25,20.25,0,0,1,1.19-3.9c.19-.49.38-1,.56-1.39l-1,1.36-2.05,2.89c-.72,1-1.13,1.62-1.24,1.84a11.38,11.38,0,0,0-1.24,3.89c0,.12,0,.34-.09.65l-.09.7a28.59,28.59,0,0,0-.36,4.83.27.27,0,0,1,0,.2c0,.06-.05.06-.08,0-.2-.27-.27-1.48-.22-3.63a37.37,37.37,0,0,1,.43-5.19,6.69,6.69,0,0,1,1.26-3.05,1.81,1.81,0,0,0,.27-.39l-.11.07a2.74,2.74,0,0,0-.5.31l-.63.44a31.37,31.37,0,0,1-5.35,3,7.76,7.76,0,0,0-3,1.85c-.24.36-1.35,2.77-3.35,7.24-.81,1.87-1.29,2.8-1.42,2.77s-.12-.23-.15-.67a3.29,3.29,0,0,1,.07-.68,8.43,8.43,0,0,1,1-2.35c.26-.51.5-1,.71-1.41l-2.7,1.36-2.6,1.39-1.33,1.6a101.49,101.49,0,0,1-8.87,9.7l-1.39,1.34-1-.17a9.35,9.35,0,0,1,1.52-3c.23-.32,1.3-1.46,3.21-3.4a24.6,24.6,0,0,0,2.31-2.72,11,11,0,0,1,3.45-3.56,2.22,2.22,0,0,0,1.15-1.49,1.43,1.43,0,0,0-.31-1.11,1.54,1.54,0,0,0-1-.64.72.72,0,0,0-.48.07,1,1,0,0,1-.28.1l0-.06a.74.74,0,0,1,.24-.2,6.46,6.46,0,0,1,2.34-.79,7.25,7.25,0,0,0,2.81-.9,2.84,2.84,0,0,0,.93-1.87,5.14,5.14,0,0,1,.46-1.45c.39-.66.74-1,1.05-.91a.21.21,0,0,0,.16,0l-.09-1.3A5.54,5.54,0,0,1,205.86,418.78ZM202,426.45c-.41.36-.77.69-1.06,1s-.43.45-.4.46a13,13,0,0,0,2.06-.94,9.65,9.65,0,0,0,2-1.14,1,1,0,0,0-.06-.6.32.32,0,0,0-.38-.22,10.35,10.35,0,0,0-1.17.69A11.59,11.59,0,0,0,202,426.45Zm7-8.73a4.17,4.17,0,0,0-.36.58s.07,0,.23-.11,2.49-2.15,7.35-6.4a20.34,20.34,0,0,0-3.13,1.69A15.37,15.37,0,0,0,209,417.72Zm13.71-8.22s0,.07,0,.12.05.05.06,0S222.79,409.47,222.75,409.5Z" transform="translate(-126.55 -251.36)"/><path class="cls-1" d="M411.62,419.06l-.09,1.3a.21.21,0,0,0,.16,0c.31-.05.66.25,1.05.91a4.84,4.84,0,0,1,.46,1.45,2.88,2.88,0,0,0,.93,1.87,7.25,7.25,0,0,0,2.81.9,6.39,6.39,0,0,1,2.34.79.94.94,0,0,1,.25.2l0,.06a1.15,1.15,0,0,1-.28-.1.72.72,0,0,0-.48-.07,1.57,1.57,0,0,0-1,.64,1.43,1.43,0,0,0-.31,1.11,2.25,2.25,0,0,0,1.15,1.49,11,11,0,0,1,3.45,3.56,24.6,24.6,0,0,0,2.31,2.72c1.91,1.94,3,3.08,3.22,3.4a9.31,9.31,0,0,1,1.51,3l-1,.17-1.39-1.34a102.82,102.82,0,0,1-8.87-9.7l-1.32-1.6-2.61-1.39-2.7-1.36c.21.43.45.9.71,1.41a8.54,8.54,0,0,1,1,2.35,3.15,3.15,0,0,1,.06.68c0,.44-.08.66-.15.67s-.61-.9-1.42-2.77q-3-6.71-3.35-7.24a7.76,7.76,0,0,0-3-1.85,31.37,31.37,0,0,1-5.35-3l-.62-.44a3.13,3.13,0,0,0-.5-.31l-.12-.07a2.15,2.15,0,0,0,.28.39A6.8,6.8,0,0,1,400,420a39.25,39.25,0,0,1,.42,5.19c.05,2.15,0,3.36-.22,3.63,0,.07,0,.07-.08,0a.23.23,0,0,1,0-.2,28.59,28.59,0,0,0-.36-4.83c0-.16-.06-.39-.1-.7s-.06-.53-.08-.65a11.58,11.58,0,0,0-1.25-3.89c-.11-.22-.52-.83-1.24-1.84l-2.05-2.89-1-1.36c.18.43.37.9.56,1.39a20.25,20.25,0,0,1,1.19,3.9,3,3,0,0,1,0,.39c0,.16,0,.27,0,.34a2.47,2.47,0,0,1,0,.84c-.06,0-.18-.23-.33-.73a17.27,17.27,0,0,0-1.9-3.68q-.78-1.15-3.25-4.68c-1.65-2.36-2.58-3.68-2.81-4l-.14-.2a.45.45,0,0,1-.08-.18.58.58,0,0,0-.05-.14.36.36,0,0,0-.1-.11.13.13,0,0,0-.11,0,.51.51,0,0,1-.38-.08,1.62,1.62,0,0,0-1.35-.22,1.06,1.06,0,0,0-.68.32,2.3,2.3,0,0,1-.8.24c-.62.1-.93.11-.95,0a4.69,4.69,0,0,1,.41-.69c.28-.42.41-.69.39-.78s0-.1-.07-.09a1.1,1.1,0,0,1-.24,0l-.58,0h-.66a5.77,5.77,0,0,1-1.08-.16,12.36,12.36,0,0,0,2.47-1.86,2.84,2.84,0,0,1,1.26-.91c.31-.05.45-.14.43-.27s.13-.39.31-.35a3.5,3.5,0,0,1,.85.35,15,15,0,0,0,5.16,1.58c2.09.33,3.15.61,3.19.84,0,.06-.33.12-1,.17l-1,.13a11.25,11.25,0,0,0,1.51.53c.37.1.56.19.57.25a2.29,2.29,0,0,1-.24.44,1.46,1.46,0,0,0-.24.43c.17,0,.63-.16,1.4-.39l1-.27a2.11,2.11,0,0,1,.6,0,4.75,4.75,0,0,1,.59.12,4.63,4.63,0,0,0,.73.12,12,12,0,0,1,3.37.61,3.12,3.12,0,0,1,1,.47s0,0-.26,0a15.35,15.35,0,0,0-2.28.2,10.31,10.31,0,0,0-2,.54c-.23.11-.25.19-.06.26q2,.59,12.55,2.68a39.42,39.42,0,0,1,4.26.9h-.05c-.24,0-1.42,0-3.54-.08a72.12,72.12,0,0,1-8.52-1,3.7,3.7,0,0,0-1.17-.05,2.52,2.52,0,0,0-1.07.49,1.43,1.43,0,0,1-1.46.35l-3.4-2.34s.13.3.47.79a4,4,0,0,0,.76.88,18.63,18.63,0,0,0,2.17,1,32.33,32.33,0,0,1,3.62,1.8,7.16,7.16,0,0,1,1.87,1.66c.27.35.79,1.13,1.56,2.35a20.21,20.21,0,0,1,1.18,2,8.19,8.19,0,0,0,2,.22A5.48,5.48,0,0,1,411.62,419.06ZM392.7,409.6c0,.07,0,.07.06,0s0-.09,0-.12S392.69,409.51,392.7,409.6Zm9.66,3.88a19.82,19.82,0,0,0-3.13-1.69q7.29,6.38,7.36,6.4c.15.11.23.14.23.11s-.13-.22-.37-.58A15.37,15.37,0,0,0,402.36,413.48Zm10.14,12.2a9.52,9.52,0,0,0-1.17-.69.32.32,0,0,0-.38.22,1.09,1.09,0,0,0-.06.6,9.57,9.57,0,0,0,2,1.14,12.75,12.75,0,0,0,2.05.94s-.1-.16-.39-.46-.65-.62-1.07-1A11.59,11.59,0,0,0,412.5,425.68Z" transform="translate(-126.55 -251.36)"/><path class="cls-1" d="M229.82,408.73h.82a11.34,11.34,0,0,1,3.84,1,4.78,4.78,0,0,0,1.94.46,1.49,1.49,0,0,0,.68-.31,2,2,0,0,0,.41-.47,1.4,1.4,0,0,0,.22-.55c0-.16,0-.26-.1-.29a69.85,69.85,0,0,1-6.95-1.94l-2.59-1.11c-.39-.21-.55-.35-.48-.4a.84.84,0,0,1,.38.08,21.88,21.88,0,0,0,3.65.77,23.26,23.26,0,0,0,4,.39,10.87,10.87,0,0,1,1.22.08,9,9,0,0,0,3.18-.14c1.42-.22,2.24-.5,2.47-.86.06-.1.09-.17.08-.21s-.51-.49-1.47-.94a48.35,48.35,0,0,0-7.73-3.12c-.63-.22-.77-.42-.39-.62H233c.07,0,.12-.09.16-.09q.88-.13,6.2,1.37a11.09,11.09,0,0,0,4.37.56,4.61,4.61,0,0,0,1.56-.5c1.35-.66,3.07-2.34,5.16-5a37.55,37.55,0,0,0,5.62-9.11,23.08,23.08,0,0,0,1.42-8.88v-1.64a5.12,5.12,0,0,1,.66,1.61l.1.6.65-.1a4,4,0,0,1,.81,0c.34,0,.53,0,.57,0l-.57.57a1.93,1.93,0,0,0-.55.76,19.26,19.26,0,0,0-.42,2A51.2,51.2,0,0,1,255,395.81a24,24,0,0,1-3.37,5.23c-.75.88-1.11,1.48-1.06,1.79l0,.14a63,63,0,0,0,6.42,1.68q7.14,1.64,7.16,1.77l-.09.15a4.25,4.25,0,0,1-1.8.55,10.94,10.94,0,0,1-1.49.09c-.28,0-1.39-.11-3.31-.31a19.24,19.24,0,0,0-3.72-.19,4.59,4.59,0,0,1-.48,0l-.41,0q-.6.09-.54.42a3.28,3.28,0,0,0,.21.58c.07.22.14.42.21.59l-2.59-.29a16.44,16.44,0,0,0-2.82-.25,6.59,6.59,0,0,0-2.1,1.27A25.78,25.78,0,0,0,243,411a10.35,10.35,0,0,0-2.45,4.94,10.17,10.17,0,0,0,.14,3.33,12.11,12.11,0,0,1,.27,2.95,2.63,2.63,0,0,1-.46.79c-.21.28-.35.41-.39.37l-1.23-2.89c-.81-1.92-1.34-3.09-1.59-3.5a1.41,1.41,0,0,0-.93-.75l-.12,0a.39.39,0,0,0-.18,0q-1.85.28-9.23,8.5a57.79,57.79,0,0,1-10,9c-.33.23-1,.71-1.9,1.44a4.5,4.5,0,0,1-1.2.8c-.16,0-.26-.1-.3-.36s.27-1,1-2a14.45,14.45,0,0,1,2.1-2.5q.79-.73,4.62-3.78a40.75,40.75,0,0,0,4.09-3.52,31.53,31.53,0,0,0,2.73-3.31,26.28,26.28,0,0,0,2-3.24,26.57,26.57,0,0,0,1.41-3,9,9,0,0,0,.71-2.12l-1.52-1.61c-1-1-1.51-1.57-1.51-1.61s.07-.08.22-.11A3.94,3.94,0,0,1,229.82,408.73Z" transform="translate(-126.55 -251.36)"/><path class="cls-1" d="M381.7,402.75c.16,0,.23.06.23.11s-.52.58-1.52,1.61l-1.51,1.61a8.26,8.26,0,0,0,.7,2.12,28.41,28.41,0,0,0,1.41,3,29,29,0,0,0,2,3.24,31.53,31.53,0,0,0,2.73,3.31,43.2,43.2,0,0,0,4.09,3.52q3.82,3,4.62,3.78a14.39,14.39,0,0,1,2.1,2.5c.69,1,1,1.68,1,2s-.14.39-.29.36a4.47,4.47,0,0,1-1.21-.8c-.94-.73-1.57-1.21-1.9-1.44a57.37,57.37,0,0,1-10-9q-7.39-8.22-9.22-8.5a.63.63,0,0,0-.19,0l-.12,0a1.46,1.46,0,0,0-.93.75c-.24.42-.77,1.58-1.59,3.51l-1.23,2.88s-.17-.09-.39-.37a3,3,0,0,1-.46-.78,13.44,13.44,0,0,1,.27-3,10,10,0,0,0,.15-3.33,10.44,10.44,0,0,0-2.45-4.94,26.23,26.23,0,0,0-2.31-1.92,6.8,6.8,0,0,0-2.1-1.27,17.67,17.67,0,0,0-2.82.25l-2.58.29c.06-.17.13-.37.21-.58s.2-.54.21-.58c0-.23-.15-.37-.54-.43l-.42,0a4.59,4.59,0,0,1-.48,0,20,20,0,0,0-3.71.19c-1.93.2-3,.31-3.32.31a10.94,10.94,0,0,1-1.49-.09,4.19,4.19,0,0,1-1.79-.55l-.1-.15q0-.14,7.16-1.77a63,63,0,0,0,6.42-1.68l0-.14c.05-.31-.3-.91-1.05-1.79a24.27,24.27,0,0,1-3.38-5.22,51.44,51.44,0,0,1-3.74-13.12,17.2,17.2,0,0,0-.42-2.05,2.07,2.07,0,0,0-.54-.76l-.58-.57a3.7,3.7,0,0,0,.57,0,4.11,4.11,0,0,1,.82,0l.65.1.09-.6a5.08,5.08,0,0,1,.66-1.6v1.63a23.27,23.27,0,0,0,1.42,8.88,37.32,37.32,0,0,0,5.63,9.11c2.09,2.68,3.81,4.36,5.15,5a4.62,4.62,0,0,0,1.56.51,11.55,11.55,0,0,0,4.38-.56c3.53-1,5.6-1.47,6.19-1.38a.71.71,0,0,1,.17.09h.05c.38.2.25.4-.39.62a48.35,48.35,0,0,0-7.73,3.12c-.95.45-1.44.76-1.47.94s0,.11.09.22c.22.35,1.05.63,2.46.85a9.08,9.08,0,0,0,3.19.14,10.69,10.69,0,0,1,1.22-.08,23.25,23.25,0,0,0,3.95-.39,22.33,22.33,0,0,0,3.66-.77.78.78,0,0,1,.37-.08c.08.06-.09.19-.48.4l-2.59,1.11a67.58,67.58,0,0,1-6.94,1.94c-.09,0-.12.13-.11.29a1.34,1.34,0,0,0,.22.55,2,2,0,0,0,.41.47,1.54,1.54,0,0,0,.68.31,4.75,4.75,0,0,0,1.94-.46,11.34,11.34,0,0,1,3.84-1h.82A3.94,3.94,0,0,1,381.7,402.75Z" transform="translate(-126.55 -251.36)"/><path class="cls-1" d="M269.36,452c0,.2-.15.27-.43.22-1.07-.26-2.3-1.41-3.72-3.45a7.67,7.67,0,0,0-1.81-2,19.56,19.56,0,0,0-3.27-1.74,18.51,18.51,0,0,1-2.86-1.48c-1.48-.92-2.2-1.52-2.19-1.8,0-.08.17-.11.49-.1l.54,0-1-1c-.45-.47-1.06-1-1.83-1.7a5.82,5.82,0,0,0-1.32-1,3.42,3.42,0,0,0,.15,1c.14.69.34,1.48.59,2.37a20.29,20.29,0,0,0,.7,2.15,18.07,18.07,0,0,1,.55,1.89c-.22-.33-.44-.69-.66-1.06a28.85,28.85,0,0,0-3.19-4.32,18.59,18.59,0,0,0-3.16-2.64,2.37,2.37,0,0,1-1-1.37.33.33,0,0,1,.33-.41c.4-.05.6-.11.61-.17s-.17-.2-.52-.42a5.35,5.35,0,0,1-1.7-2,4.58,4.58,0,0,1-.58-2.43,1,1,0,0,1,0-.24,1,1,0,0,0,0-.24c.06-.24.11-.37.18-.41a1.41,1.41,0,0,1,.51-.09,4.51,4.51,0,0,0,1-.37l.56-.27-.48,0a5.75,5.75,0,0,1-1.19-.31,5.64,5.64,0,0,1-3.62-4.1l-.2-.73-.28.7a21,21,0,0,1-2.27,4.26c-.22.35-.52.77-.88,1.25s-.69.87-1,1.18-.43.45-.47.45-.06-.1-.05-.3a15.68,15.68,0,0,1,.6-3.21,18,18,0,0,1,1.75-4.48,10,10,0,0,0,1.32-3.29,2.92,2.92,0,0,0-1.32-2.29c-1-.82-1.54-1.53-1.5-2.13a13.58,13.58,0,0,1,.54-2.25,28.22,28.22,0,0,0,1.33-5.58,3.06,3.06,0,0,0-.28-1.52,16.39,16.39,0,0,0-2-2.81q-1.54-1.89-2.85-3.34l-1.31-1.39,2,1.13a10.56,10.56,0,0,0,3.46,1.69,1.66,1.66,0,0,0,1.55-.94q.48-1,2-5.12l1.7-4.65.06-.06c.08,0,.12.13.11.37s-.26,1.75-.73,4.4q-.25,1.44-.72,3.93c-.32,1.67-.5,2.68-.56,3a59.78,59.78,0,0,0-.79,6.75c0,.72,0,1.52,0,2.4.05,1.29.13,1.93.25,1.94s.39-.52.81-1.58a32.23,32.23,0,0,1,3.29-6.31l.19-.23q-.69,2.91-1.61,6.4a66,66,0,0,0-1.59,7.13,9.42,9.42,0,0,0,2.25,5.53,15.13,15.13,0,0,0,2.17,1.5,86.29,86.29,0,0,1,9.95,7,5.26,5.26,0,0,1,.41.35l.4.35a2.16,2.16,0,0,1,.31.32c.05.08.06.12,0,.12q-.6,0-9.71-4.8l0,.42a3.51,3.51,0,0,1-.12.47c-.07.24-.14.46-.21.65s-.09.32,0,.36a4.47,4.47,0,0,0,1,.81,17,17,0,0,0,1.46.89c4.76,2.23,7.41,3.35,7.92,3.38-.56,0-1.22,0-2-.05a11,11,0,0,0-2.28,0c-.2.07-.23.14-.07.23a2.91,2.91,0,0,0,.47.21,35,35,0,0,1,15,13.32A3.55,3.55,0,0,1,269.36,452Z" transform="translate(-126.55 -251.36)"/><path class="cls-1" d="M278.58,395.3h.76a10.71,10.71,0,0,1,3.52.85,4.49,4.49,0,0,0,1.79.39,1.48,1.48,0,0,0,.63-.28,1.75,1.75,0,0,0,.38-.42,1,1,0,0,0,.2-.48c0-.14,0-.23-.09-.26a65,65,0,0,1-6.39-1.67l-2.37-1c-.36-.18-.51-.3-.45-.35a.78.78,0,0,1,.35.07,20.38,20.38,0,0,0,3.36.66,23,23,0,0,0,3.64.32,9.62,9.62,0,0,1,1.13.07,8.75,8.75,0,0,0,2.93-.15c1.3-.2,2.06-.45,2.28-.77a.38.38,0,0,0,.08-.19c0-.16-.48-.43-1.35-.82a45.56,45.56,0,0,0-7.1-2.71c-.59-.19-.71-.37-.36-.55h.05a.54.54,0,0,1,.16-.09q.81-.12,5.69,1.18a10.5,10.5,0,0,0,4,.47,4.15,4.15,0,0,0,1.43-.46q1.88-.88,4.78-4.46a33.1,33.1,0,0,0,5.23-8.08,19.79,19.79,0,0,0,1.37-7.86V367.3a4.51,4.51,0,0,1,.61,1.41l.08.53.6-.09a3.44,3.44,0,0,1,.75,0h.53l-.54.51a1.91,1.91,0,0,0-.51.68,15.08,15.08,0,0,0-.39,1.8,44.93,44.93,0,0,1-3.52,11.62,21.85,21.85,0,0,1-3.14,4.63c-.7.79-1,1.32-1,1.6l0,.11a57.31,57.31,0,0,0,5.91,1.45c4.37.94,6.57,1.45,6.58,1.53l-.09.13a4,4,0,0,1-1.65.49,7.26,7.26,0,0,1-1.38.09c-.26,0-1.28-.08-3.05-.25a18.11,18.11,0,0,0-3.42-.14l-.44,0-.39,0c-.36.06-.53.18-.5.38,0,0,.07.21.19.51s.13.36.19.51l-2.37-.24a17.14,17.14,0,0,0-2.6-.2,6.47,6.47,0,0,0-1.94,1.14,24.51,24.51,0,0,0-2.14,1.71,9.13,9.13,0,0,0-2.28,4.38,8.64,8.64,0,0,0,.11,2.93,10,10,0,0,1,.23,2.62,2.66,2.66,0,0,1-.42.69c-.2.26-.33.36-.37.33l-1.11-2.54c-.74-1.69-1.22-2.72-1.45-3.09a1.23,1.23,0,0,0-.85-.65h-.11a.3.3,0,0,0-.17,0q-1.68.25-8.54,7.56a53.21,53.21,0,0,1-9.26,8c-.3.2-.89.63-1.75,1.29a4.25,4.25,0,0,1-1.12.71c-.14,0-.24-.08-.27-.32s.26-.86.9-1.76a13,13,0,0,1,1.95-2.23q.74-.64,4.27-3.36a40,40,0,0,0,3.79-3.13,29.43,29.43,0,0,0,2.53-2.95,25.35,25.35,0,0,0,1.85-2.87,23,23,0,0,0,1.31-2.7,6.88,6.88,0,0,0,.66-1.88l-1.38-1.41c-.92-.9-1.38-1.37-1.39-1.41s.07-.07.21-.1A3.35,3.35,0,0,1,278.58,395.3Z" transform="translate(-126.55 -251.36)"/><path class="cls-1" d="M355.44,420.86a6,6,0,0,0,0-1.76c-.11,0-.81-.55-2.1-1.54s-2.12-1.64-2.48-2a8.35,8.35,0,0,1-1.67-2,30.09,30.09,0,0,1-1.64-3.58,17.91,17.91,0,0,0-.9-2.13,5.34,5.34,0,0,0-.91-.89c-.51-.42-.79-.63-.84-.61l2.27,3.53c.17.41,0,.8-.56,1.16a1.69,1.69,0,0,0-.66.79,2.25,2.25,0,0,0-.07,1,48.94,48.94,0,0,1,.15,7.56,25,25,0,0,1-.29,3.06l0,0a28,28,0,0,1-.55-3.89q-1.22-9.56-1.66-11.47c-.06-.18-.16-.19-.3,0a6.83,6.83,0,0,0-.83,1.58,9.26,9.26,0,0,0-.47,1.9c0,.18-.05.25-.08.21a3,3,0,0,1-.41-1,8.72,8.72,0,0,1-.32-3,3.68,3.68,0,0,0-.06-.66,4.85,4.85,0,0,1-.07-.55,1.47,1.47,0,0,1,.1-.5c0-.06.16-.32.42-.79a12.18,12.18,0,0,0,.59-1.1,2.39,2.39,0,0,0-.52.09,2.39,2.39,0,0,1-.52.09c-.07,0-.14-.21-.22-.56a9.71,9.71,0,0,0-.43-1.43l-.26.85c-.13.58-.24.85-.31.83-.24-.1-.44-1.08-.59-3a11.91,11.91,0,0,0-1.23-4.85,3.25,3.25,0,0,1-.3-.82c0-.16.13-.22.43-.17.14,0,.26-.05.35-.29s.48-.53,1.17-.84a10.38,10.38,0,0,0,2.36-1.62,3,3,0,0,1,.06,1q0,.24-.06.57t0,.51a.64.64,0,0,1,0,.2s0,.06.09.08a2.45,2.45,0,0,0,.93-.12,6,6,0,0,1,.82-.17q.17.06-.12.81a1.42,1.42,0,0,1-.35.62.74.74,0,0,0-.43.5,1.18,1.18,0,0,0,.09,1.22.41.41,0,0,1,.05.35.14.14,0,0,0,0,.1.38.38,0,0,0,.11.11l.16.08a.72.72,0,0,1,.19.12l.21.17c.31.27,1.69,1.43,4.17,3.47s4.12,3.39,4.93,4a26.21,26.21,0,0,0,3.94,2.61c.55.27.81.43.79.48a3.78,3.78,0,0,1-.95-.21l-.38-.12-.44-.14a31.79,31.79,0,0,1-4.26-2.06L350,405.8,351.4,407l3,2.52c1.07.89,1.72,1.41,1.94,1.55a17.64,17.64,0,0,0,4.26,2.11l.72.25q.52.16.78.27a47.23,47.23,0,0,0,5.41,1.59.38.38,0,0,1,.22.06c.07,0,.06.06,0,.06a15.68,15.68,0,0,1-4.11-.78c-2.42-.62-4.35-1.2-5.81-1.74a10.6,10.6,0,0,1-3.3-1.89,5.15,5.15,0,0,0-.41-.35l.07.12a3.45,3.45,0,0,0,.29.52c.16.23.3.44.43.65a30,30,0,0,1,2.78,5.38,8.27,8.27,0,0,0,1.77,3.07q.57.44,7.8,4.8a14.13,14.13,0,0,1,3,1.95c0,.06-.28,0-.77-.05a7,7,0,0,1-.76-.23,14,14,0,0,1-2.55-1.47c-.55-.37-1.05-.7-1.51-1l1.25,2.68,1.27,2.6,1.66,1.56a131.44,131.44,0,0,1,10,10.19l1.36,1.55-.29.79a14.14,14.14,0,0,1-3.23-2.1q-.51-.43-3.48-3.67a30.6,30.6,0,0,0-2.82-2.7,13.71,13.71,0,0,1-3.64-3.9,2.91,2.91,0,0,0-1.55-1.38,1.9,1.9,0,0,0-1.29,0,1.18,1.18,0,0,0-.82.66.54.54,0,0,0,0,.43.55.55,0,0,1,.08.27l-.07,0a1,1,0,0,1-.2-.26,5.14,5.14,0,0,1-.63-2.22,6,6,0,0,0-.71-2.65,4.15,4.15,0,0,0-2-1.29,9.06,9.06,0,0,1-1.59-.78c-.7-.51-1-.89-.91-1.14a.16.16,0,0,0,0-.15l-1.48-.27C355.42,422.6,355.39,422,355.44,420.86Zm-8.64-16.95a.14.14,0,0,0,.14,0c.06,0,.06,0,0,0S346.78,403.87,346.8,403.91Zm7.79,13.95c.37.29.58.45.61.46s0-.06-.1-.22-2.16-2.72-6.41-8a17.08,17.08,0,0,0,5.9,7.77Zm9.08,8.34q.54.68,1,1.17c.3.34.45.49.46.46a9.7,9.7,0,0,0-.82-2,9,9,0,0,0-1.08-2,1.56,1.56,0,0,0-.68-.12c-.21,0-.3.11-.29.27a8.36,8.36,0,0,0,.65,1.19C363.06,425.41,363.31,425.75,363.67,426.2Z" transform="translate(-126.55 -251.36)"/><path class="cls-1" d="M268.12,422.71l-1.48.27a.17.17,0,0,0,0,.14c.09.25-.21.63-.91,1.14a8.42,8.42,0,0,1-1.59.79,4.15,4.15,0,0,0-2,1.29,6,6,0,0,0-.71,2.65,5.14,5.14,0,0,1-.63,2.21,1.1,1.1,0,0,1-.2.27l-.07,0a.71.71,0,0,1,.08-.27.54.54,0,0,0,0-.43,1.14,1.14,0,0,0-.82-.66,1.9,1.9,0,0,0-1.29,0A3,3,0,0,0,257,431.5a13.72,13.72,0,0,1-3.64,3.91,30.6,30.6,0,0,0-2.82,2.7q-3,3.24-3.48,3.66a14.14,14.14,0,0,1-3.23,2.1l-.29-.79,1.37-1.54a127.74,127.74,0,0,1,10-10.19l1.66-1.56,1.28-2.6L259,424.5l-1.51,1A12.86,12.86,0,0,1,255,427a5.6,5.6,0,0,1-.76.24c-.49.09-.75.1-.77.05a14.35,14.35,0,0,1,3-2q7.23-4.35,7.8-4.8a8.21,8.21,0,0,0,1.77-3.06,30,30,0,0,1,2.78-5.39c.13-.2.27-.42.43-.65a3,3,0,0,0,.29-.51l.07-.12a4,4,0,0,0-.41.34,10.22,10.22,0,0,1-3.3,1.89,57.74,57.74,0,0,1-5.81,1.75,15.68,15.68,0,0,1-4.11.78c-.08,0-.09,0,0-.06a.38.38,0,0,1,.22-.06,45.69,45.69,0,0,0,5.41-1.6l.78-.27.73-.24a18.51,18.51,0,0,0,4.25-2.11c.22-.15.87-.66,1.94-1.55l3-2.52,1.42-1.24c-.47.27-1,.55-1.51.84a32,32,0,0,1-4.26,2.07l-.44.14-.38.12a3.78,3.78,0,0,1-.95.21c0-.06.24-.22.79-.49a25.35,25.35,0,0,0,3.94-2.6c.81-.65,2.46-2,4.93-4s3.86-3.2,4.17-3.47l.21-.17a.75.75,0,0,1,.2-.12l.15-.08a.6.6,0,0,0,.11-.12.13.13,0,0,0,0-.1.41.41,0,0,1,.05-.35,1.16,1.16,0,0,0,.09-1.21c-.1-.28-.24-.45-.43-.5a1.55,1.55,0,0,1-.35-.63c-.18-.49-.22-.76-.12-.8a5,5,0,0,1,.82.16,2.34,2.34,0,0,0,.93.13c.07,0,.1-.05.09-.08a.78.78,0,0,1,0-.21c0-.11,0-.28,0-.5s-.05-.42-.06-.57a3.19,3.19,0,0,1,.06-1,10.38,10.38,0,0,0,2.36,1.62q1,.46,1.17.84c.09.25.21.35.35.29.3-.05.45,0,.43.17a3.28,3.28,0,0,1-.3.83,11.9,11.9,0,0,0-1.23,4.84c-.15,1.88-.34,2.87-.59,3-.07,0-.18-.25-.31-.83l-.26-.85a9.83,9.83,0,0,0-.43,1.44c-.08.34-.15.53-.22.55a1.5,1.5,0,0,1-.52-.09,2.39,2.39,0,0,0-.52-.09,11.75,11.75,0,0,0,.59,1.11c.26.46.4.73.42.78a1.57,1.57,0,0,1,.1.51,5.15,5.15,0,0,1-.07.55,3.49,3.49,0,0,0-.06.65,8.78,8.78,0,0,1-.32,3.05,2.9,2.9,0,0,1-.41,1s-.06,0-.08-.2a9.53,9.53,0,0,0-.47-1.91,6.77,6.77,0,0,0-.83-1.57c-.14-.17-.24-.16-.3,0q-.44,1.92-1.66,11.48a27.67,27.67,0,0,1-.55,3.88l0,0a24.65,24.65,0,0,1-.29-3,48.94,48.94,0,0,1,.15-7.56,2.24,2.24,0,0,0-.07-1,1.64,1.64,0,0,0-.66-.79c-.54-.37-.73-.75-.55-1.16l2.26-3.54a3.45,3.45,0,0,0-.83.62,5.64,5.64,0,0,0-.92.88,19.69,19.69,0,0,0-.9,2.13,30.4,30.4,0,0,1-1.64,3.59,8.35,8.35,0,0,1-1.67,2c-.36.32-1.19,1-2.48,2s-2,1.5-2.1,1.54a5.94,5.94,0,0,0,0,1.76C268.26,422.08,268.23,422.67,268.12,422.71Zm-7.37,2.52a9,9,0,0,0,.65-1.19c0-.16-.08-.25-.29-.27a1.54,1.54,0,0,0-.68.11,8.93,8.93,0,0,0-1.08,2,9.92,9.92,0,0,0-.82,2s.16-.13.46-.46.63-.73,1-1.17S260.59,425.47,260.75,425.23Zm12.65-12a19,19,0,0,0,1.56-3.13q-6.37,8-6.41,8c-.1.17-.14.24-.1.23a7.23,7.23,0,0,0,.61-.47A18.7,18.7,0,0,0,273.4,413.28Zm3.32-9.31c-.07,0-.07,0,0,.06a.14.14,0,0,0,.14-.06S276.83,403.93,276.72,404Z" transform="translate(-126.55 -251.36)"/></svg>