<svg width="73" height="73" viewBox="0 0 73 73" fill="none" xmlns="http://www.w3.org/2000/svg">
<g filter="url(#filter0_d_8_52)">
<path d="M36.5 0C45.3302 0 46.432 0.0324998 49.8965 0.195C53.3577 0.3575 55.714 0.90025 57.7875 1.70625C59.9325 2.53175 61.7395 3.64975 63.5465 5.4535C65.1991 7.07816 66.4779 9.04341 67.2938 11.2125C68.0965 13.2827 68.6425 15.6422 68.805 19.1035C68.9577 22.568 69 23.6698 69 32.5C69 41.3302 68.9675 42.432 68.805 45.8965C68.6425 49.3577 68.0965 51.714 67.2938 53.7875C66.4802 55.9578 65.2011 57.9235 63.5465 59.5465C61.9214 61.1985 59.9563 62.4772 57.7875 63.2938C55.7172 64.0965 53.3577 64.6425 49.8965 64.805C46.432 64.9577 45.3302 65 36.5 65C27.6698 65 26.568 64.9675 23.1035 64.805C19.6422 64.6425 17.286 64.0965 15.2125 63.2938C13.0426 62.4795 11.077 61.2006 9.4535 59.5465C7.80057 57.9221 6.52178 55.9568 5.70625 53.7875C4.90025 51.7172 4.3575 49.3577 4.195 45.8965C4.04225 42.432 4 41.3302 4 32.5C4 23.6698 4.0325 22.568 4.195 19.1035C4.3575 15.639 4.90025 13.286 5.70625 11.2125C6.51952 9.04208 7.79861 7.07629 9.4535 5.4535C11.0774 3.8 13.0429 2.52112 15.2125 1.70625C17.286 0.90025 19.639 0.3575 23.1035 0.195C26.568 0.0422498 27.6698 0 36.5 0ZM36.5 16.25C32.1902 16.25 28.057 17.962 25.0095 21.0095C21.962 24.057 20.25 28.1902 20.25 32.5C20.25 36.8098 21.962 40.943 25.0095 43.9905C28.057 47.038 32.1902 48.75 36.5 48.75C40.8098 48.75 44.943 47.038 47.9905 43.9905C51.038 40.943 52.75 36.8098 52.75 32.5C52.75 28.1902 51.038 24.057 47.9905 21.0095C44.943 17.962 40.8098 16.25 36.5 16.25ZM57.625 15.4375C57.625 14.3601 57.197 13.3267 56.4351 12.5649C55.6733 11.803 54.6399 11.375 53.5625 11.375C52.4851 11.375 51.4517 11.803 50.6899 12.5649C49.928 13.3267 49.5 14.3601 49.5 15.4375C49.5 16.5149 49.928 17.5483 50.6899 18.3101C51.4517 19.072 52.4851 19.5 53.5625 19.5C54.6399 19.5 55.6733 19.072 56.4351 18.3101C57.197 17.5483 57.625 16.5149 57.625 15.4375ZM36.5 22.75C39.0859 22.75 41.5658 23.7772 43.3943 25.6057C45.2228 27.4342 46.25 29.9141 46.25 32.5C46.25 35.0859 45.2228 37.5658 43.3943 39.3943C41.5658 41.2228 39.0859 42.25 36.5 42.25C33.9141 42.25 31.4342 41.2228 29.6057 39.3943C27.7772 37.5658 26.75 35.0859 26.75 32.5C26.75 29.9141 27.7772 27.4342 29.6057 25.6057C31.4342 23.7772 33.9141 22.75 36.5 22.75Z" fill="#B52F2F"/>
</g>
<defs>
<filter id="filter0_d_8_52" x="0" y="0" width="73" height="73" filterUnits="userSpaceOnUse" color-interpolation-filters="sRGB">
<feFlood flood-opacity="0" result="BackgroundImageFix"/>
<feColorMatrix in="SourceAlpha" type="matrix" values="0 0 0 0 0 0 0 0 0 0 0 0 0 0 0 0 0 0 127 0" result="hardAlpha"/>
<feOffset dy="4"/>
<feGaussianBlur stdDeviation="2"/>
<feComposite in2="hardAlpha" operator="out"/>
<feColorMatrix type="matrix" values="0 0 0 0 0 0 0 0 0 0 0 0 0 0 0 0 0 0 0.25 0"/>
<feBlend mode="normal" in2="BackgroundImageFix" result="effect1_dropShadow_8_52"/>
<feBlend mode="normal" in="SourceGraphic" in2="effect1_dropShadow_8_52" result="shape"/>
</filter>
</defs>
</svg>
