<svg width="62" height="62" viewBox="0 0 62 62" fill="none" xmlns="http://www.w3.org/2000/svg">
<path d="M44.311 38.9937H41.5106L40.518 38.0366C44.1121 33.8679 46.0874 28.5459 46.0835 23.0417C46.0835 18.4845 44.7321 14.0296 42.2002 10.2404C39.6684 6.45125 36.0698 3.49793 31.8594 1.75396C27.6491 0.00998363 23.0162 -0.44632 18.5465 0.442751C14.0769 1.33182 9.97122 3.52633 6.74878 6.74878C3.52633 9.97122 1.33182 14.0769 0.442751 18.5465C-0.44632 23.0162 0.00998363 27.6491 1.75396 31.8594C3.49793 36.0698 6.45125 39.6684 10.2404 42.2002C14.0296 44.7321 18.4845 46.0835 23.0417 46.0835C28.749 46.0835 33.9954 43.992 38.0366 40.518L38.9937 41.5106V44.311L56.7181 62L62 56.7181L44.311 38.9937ZM23.0417 38.9937C14.215 38.9937 7.08978 31.8685 7.08978 23.0417C7.08978 14.215 14.215 7.08978 23.0417 7.08978C31.8685 7.08978 38.9937 14.215 38.9937 23.0417C38.9937 31.8685 31.8685 38.9937 23.0417 38.9937Z" fill="black"/>
</svg>
